<svg xmlns="http://www.w3.org/2000/svg" xmlns:xlink="http://www.w3.org/1999/xlink" viewBox="0 0 2200 1466"><defs><style>.st0{fill:#8c8c8c}.st0,.st1{display:none}.st2{fill:#193f3a}.st3{fill:#2b4c9a}.st4{fill:#ce2828}.st5{fill:#ddd}.st6{fill:none;stroke:#39a935;stroke-linejoin:round;stroke-width:21.68px}.st7{fill:#252853}.st8{fill:#a4a4a4}.st9{fill:#6d4135}</style></defs><g id="background" class="st1"><image width="512" height="512" transform="translate(1556.46 101.14) scale(.75)"/></g><g id="Objects" class="st1"><g><path d="M1732.47,487.27c-20.31-48.02-46.27-92.85-77.54-133.99l-35.52-4.79-56.19,56.19c30.08,37.36,54.73,78.57,73.55,123.06,27.11,64.1,40.85,132.1,40.85,202.14s-13.74,138.04-40.85,202.14c-26.16,61.84-63.58,117.35-111.22,164.99-47.64,47.64-103.15,85.06-164.99,111.22-64.1,27.11-132.1,40.85-202.14,40.85s-138.04-13.74-202.14-40.85c-61.84-26.16-117.35-63.58-164.99-111.22-47.64-47.64-85.06-103.16-111.22-164.99-27.1-64.1-40.85-132.1-40.85-202.14s13.75-138.05,40.85-202.14c26.16-61.84,63.58-117.35,111.22-164.99,47.64-47.64,103.15-85.06,164.99-111.22,64.1-27.11,132.1-40.85,202.14-40.85s138.04,13.74,202.14,40.85c44.49,18.82,85.7,43.47,123.06,73.55l56.19-56.19-4.79-35.52c-41.14-31.28-85.97-57.23-133.99-77.54-76.97-32.56-158.59-49.06-242.61-49.06s-165.64,16.5-242.61,49.06c-74.24,31.4-140.85,76.3-197.99,133.45-57.15,57.15-102.05,123.76-133.45,197.99-32.56,76.97-49.06,158.6-49.06,242.61s16.5,165.64,49.06,242.61c31.4,74.23,76.3,140.84,133.45,198,57.15,57.14,123.77,102.04,197.99,133.44,76.97,32.56,158.59,49.06,242.61,49.06s165.64-16.5,242.61-49.06c74.24-31.4,140.84-76.3,198-133.45,57.14-57.15,102.04-123.77,133.44-197.99,32.56-76.96,49.06-158.59,49.06-242.61s-16.5-165.65-49.06-242.61Z" class="st4"/><path d="M1543.91,567.01c-13.72-32.45-31.29-62.74-52.5-90.52l-74.36,74.36c36.31,52.2,55.84,114.11,55.84,179.04,0,84-32.71,162.97-92.11,222.37-59.39,59.4-138.37,92.12-222.37,92.12s-162.97-32.71-222.37-92.12c-59.4-59.39-92.11-138.37-92.11-222.37s32.71-162.97,92.11-222.37c59.39-59.4,138.37-92.11,222.37-92.11,64.93,0,126.84,19.54,179.04,55.84l74.36-74.36c-27.79-21.21-58.08-38.78-90.52-52.5-51.61-21.83-106.41-32.9-162.87-32.9s-111.25,11.07-162.87,32.9c-49.83,21.08-94.57,51.24-132.98,89.64-38.4,38.41-68.56,83.15-89.64,132.98-21.83,51.61-32.9,106.41-32.9,162.87s11.07,111.25,32.9,162.87c21.08,49.83,51.24,94.57,89.64,132.98,38.41,38.4,83.15,68.56,132.98,89.64,51.62,21.83,106.41,32.9,162.87,32.9s111.26-11.08,162.87-32.9c49.83-21.08,94.57-51.24,132.98-89.64,38.4-38.41,68.56-83.15,89.64-132.98,21.83-51.62,32.9-106.41,32.9-162.87s-11.07-111.26-32.9-162.87Z" class="st4"/><path d="M1344.04,623.86l-79.15,79.15c2.17,8.69,3.29,17.69,3.29,26.87,0,29.32-11.41,56.87-32.14,77.61-20.73,20.73-48.29,32.14-77.61,32.14s-56.87-11.41-77.6-32.14c-20.73-20.73-32.15-48.29-32.15-77.61s11.42-56.88,32.15-77.61c20.73-20.73,48.28-32.14,77.6-32.14,9.18,0,18.18,1.12,26.87,3.29l79.15-79.15c-31.93-18.3-68.23-28.05-106.02-28.05-57.07,0-110.73,22.23-151.09,62.58-40.35,40.36-62.58,94.01-62.58,151.09s22.23,110.73,62.58,151.09c40.36,40.35,94.01,62.58,151.09,62.58s110.73-22.23,151.09-62.58c40.35-40.36,62.58-94.01,62.58-151.09,0-37.8-9.75-74.1-28.05-106.02Z" class="st4"/><path d="M1805.78,197.28l-35.95-35.95,28.69-28.69c11.84-11.84,11.84-31.03,0-42.86-11.84-11.84-31.03-11.84-42.86,0l-28.69,28.69-35.95-35.95c-10.96-10.96-28.72-10.96-39.68,0l-87.5,87.5c-6.19,6.19-9.14,14.91-7.97,23.59l11.4,84.55-430.29,430.29c-11.84,11.84-11.84,31.03,0,42.86,5.92,5.92,13.67,8.88,21.43,8.88s15.51-2.96,21.43-8.88l430.29-430.29,84.55,11.4c8.68,1.17,17.4-1.78,23.59-7.97l87.5-87.5c10.96-10.96,10.96-28.72,0-39.68Z" class="st9"/></g></g><g id="Warstwa_3" class="st1"><g><path d="M1102.95,480.51c-116.21,0-210.76-94.55-210.76-210.76s94.55-210.76,210.76-210.76,210.76,94.55,210.76,210.76-94.54,210.76-210.76,210.76ZM1102.95,91.42c-98.33,0-178.33,80-178.33,178.33s80,178.33,178.33,178.33,178.33-80,178.33-178.33-80-178.33-178.33-178.33Z" class="st2"/><path d="M850.88,1032.67c-2.51,0-4.51-.32-6.27-.78-23.41-5.94-40.04-33.33-50.74-83.7-7.62-35.87-10.7-76.2-11.05-101.99l-.17-12.09c-.73-50.33-1.48-102.37,5.35-147.79,16.73-111.36,80.17-167.82,188.55-167.82h191.57c8.95,0,16.21,7.26,16.21,16.21s-7.26,16.21-16.21,16.21h-191.57c-92.39,0-142.12,44.55-156.49,140.21-6.43,42.79-5.7,93.48-4.99,142.51l.17,12.12c.31,23.14,3.21,62.08,10.35,95.69,10.17,47.9,22.55,57.02,26.19,58.7,10.39-1.32,49.2-18.45,96.57-47.95,50.99-31.75,88.85-63.4,101.46-84.8,8.96-18.88,19.5-110.26,24.07-163.85.76-8.92,8.61-15.53,17.53-14.78,8.92.76,15.54,8.61,14.78,17.53-2.07,24.34-13.15,147.23-27.58,176.01l-.45.84c-22.22,38.52-89.73,82.55-117.73,99.69-23.48,14.37-47.3,27.28-67.09,36.35-23.2,10.63-35.06,13.48-42.47,13.48Z" class="st2"/><path d="M1355.01,1032.68c-7.37,0-19.22-2.83-42.47-13.49-19.78-9.07-43.61-21.97-67.09-36.35-27.99-17.14-95.5-61.17-117.73-99.69l-.45-.84c-14.56-29.07-32.04-160.41-33.98-175.29-1.16-8.88,5.1-17.02,13.98-18.18,8.88-1.17,17.02,5.1,18.18,13.97,7.02,53.73,21.49,145.43,30.63,164.56,12.61,21.4,50.47,53.06,101.47,84.81,47.34,29.47,86.12,46.6,96.55,47.95,3.77-1.76,16.09-11,26.22-58.7,7.14-33.61,10.03-72.55,10.35-95.69l.17-12.12c.71-49.02,1.44-99.71-4.99-142.5-14.37-95.66-64.1-140.21-156.49-140.21h-191.57c-8.95,0-16.21-7.26-16.21-16.21s7.26-16.21,16.21-16.21h191.57c108.38,0,171.82,56.46,188.55,167.82,6.83,45.42,6.08,97.46,5.35,147.79l-.17,12.09c-.35,25.79-3.43,66.12-11.05,101.99-10.7,50.37-27.33,77.76-50.84,83.73-1.72.45-3.69.77-6.17.77Z" class="st2"/><path d="M611.07,1408.56c-78.08,0-108.71-27.91-120.64-51.57-15.31-30.34-6.34-65.18,8.47-84.71,37.72-49.74,159.79-65.22,281.59-76.81,22.87-2.18,48.8-4.65,54.02-6.47,3.36-1.2,7.35-2.47,11.97-3.94,33.64-10.69,96.27-30.58,106.02-84.21,7.47-41.1,4.41-78.78-10.57-130.04-2.51-8.6,2.42-17.6,11.01-20.11,8.6-2.51,17.6,2.42,20.11,11.01,16.29,55.75,19.68,99.09,11.35,144.94-13.24,72.83-90.82,97.47-128.11,109.31-4.32,1.37-8.05,2.56-10.86,3.56-8.49,3.04-26.08,4.81-61.87,8.22-73.54,7-226.56,21.57-258.83,64.13-7.16,9.44-14.95,31.5-5.36,50.51,11.29,22.37,45.24,34.35,95.45,33.72,72.12-.9,174.64-17.32,273.79-33.2,145.86-23.36,271.82-43.54,317.45-20.14,7.97,4.09,11.11,13.86,7.03,21.82-4.09,7.97-13.86,11.11-21.82,7.03-36.18-18.56-175.03,3.69-297.52,23.3-100.3,16.06-204.01,32.68-278.51,33.6-1.4.02-2.79.03-4.16.03Z" class="st2"/><path d="M1562.4,1408.56c-1.38,0-2.76,0-4.16-.03-85.37-1.06-209.51-37.33-329.55-72.4-63.1-18.44-122.7-35.85-171.21-46.35-62.05-13.43-85.69-10.81-94.6-6.25-7.97,4.08-17.74.94-21.82-7.03-4.09-7.97-.94-17.74,7.03-21.82,40.56-20.8,136.51,5.57,289.7,50.33,112.46,32.85,239.92,70.09,320.86,71.1,50.28.65,84.17-11.35,95.46-33.72,9.59-19.01,1.8-41.07-5.36-50.51-32.28-42.56-185.3-57.13-258.83-64.13-35.8-3.41-53.38-5.18-61.87-8.22-2.81-1-6.54-2.19-10.86-3.56-37.28-11.84-114.87-36.48-128.11-109.31-10.65-58.6-.88-107.76,17.07-163.55,2.74-8.52,11.87-13.2,20.4-10.47,8.52,2.74,13.21,11.88,10.47,20.4-16.46,51.14-25.49,95.85-16.04,147.82,9.75,53.64,72.38,73.53,106.02,84.21,4.62,1.47,8.61,2.74,11.98,3.94,5.22,1.82,31.14,4.29,54.01,6.47,121.8,11.6,243.88,27.08,281.59,76.82,14.81,19.53,23.78,54.36,8.47,84.71-11.93,23.65-42.58,51.57-120.65,51.57Z" class="st2"/><path d="M927.26,881.1c-7.13,0-13.66-4.74-15.63-11.95-15.2-55.74-1.1-201.5-.49-207.68.88-8.91,8.8-15.43,17.72-14.55,8.91.88,15.42,8.81,14.55,17.72-3.97,40.44-11.81,154.48-.49,195.98,2.36,8.64-2.74,17.55-11.38,19.91-1.43.39-2.86.58-4.27.58Z" class="st2"/><path d="M1278.63,881.1c-1.41,0-2.85-.19-4.27-.58-8.64-2.36-13.73-11.27-11.38-19.91,11.32-41.5,3.48-155.54-.49-195.98-.88-8.91,5.64-16.84,14.55-17.72,8.93-.87,16.85,5.64,17.72,14.55.61,6.18,14.71,151.95-.49,207.68-1.97,7.21-8.5,11.95-15.63,11.95Z" class="st2"/></g></g><g id="Warstwa_4" class="st1"><g><g><path d="M1119.93,889.24c-38.48,0-77.83-15.23-107.97-41.78-15.12-13.32-27.07-28.66-35.53-45.58-9.01-18.03-13.57-36.99-13.57-56.36,0-.15,0-.31.01-.46.03-.4,2.52-40.09.13-84.37-3.1-57.36-12.76-96.24-27.94-112.43-5.13-5.47-10.74-8.13-17.14-8.13-3.82,0-6.98-2.99-7.19-6.81-.21-3.82,2.6-7.14,6.4-7.56.28-.03,2.83-.3,7.1-.3,14.98,0,53.08,3.43,83.26,35.23,18.54,19.54,30.83,46.13,36.77,79.48.9-3.78,1.88-7.61,2.94-11.47,15.02-54.82,38.56-89.28,69.96-102.43,1.78-.74,3.78-.74,5.56,0,31.4,13.15,54.94,47.62,69.96,102.44,1.05,3.85,2.03,7.67,2.93,11.44,5.94-33.34,18.22-59.94,36.76-79.47,30.18-31.8,68.29-35.23,83.27-35.23,4.27,0,6.83.27,7.1.3,3.8.42,6.61,3.74,6.4,7.56-.21,3.82-3.37,6.81-7.19,6.81-6.4,0-12.01,2.66-17.14,8.13-15.19,16.21-24.86,55.13-27.95,112.57-2.38,44.27.11,83.84.13,84.23,0,.15.01.31.01.46,0,19.37-4.57,38.33-13.57,56.36-8.46,16.92-20.41,32.26-35.53,45.58-30.14,26.55-69.5,41.78-107.97,41.78ZM977.26,745.74c.15,67.59,68.08,129.1,142.67,129.1s142.52-61.51,142.67-129.1c-.21-3.45-2.46-42.41-.13-85.69,3.07-57.08,12.46-96.38,27.92-116.98-14.68,3.69-32.31,11.45-47.58,27.54-27.55,29.03-39.8,76.41-36.42,140.83l.02.33c.19,3.97-2.86,7.34-6.83,7.55-3.98.2-7.35-2.85-7.56-6.81l-.02-.3c-.32-5.8-8.46-141-72.07-171.39-63.61,30.38-71.75,165.58-72.07,171.4v.29c-.23,3.97-3.61,7.02-7.57,6.81-3.97-.2-7.02-3.58-6.83-7.54l.02-.33s0-.01,0-.02c3.37-64.4-8.89-111.78-36.44-140.81-15.27-16.08-32.89-23.85-47.56-27.54,15.46,20.6,24.85,59.9,27.92,116.98,2.33,43.28.08,82.24-.13,85.69Z" class="st7"/><path d="M1005.51,576.44c-1.3,0-2.62-.35-3.8-1.09-3.38-2.1-4.41-6.55-2.31-9.92,12.39-19.9,27.33-33.61,44.4-40.76,1.78-.75,3.79-.75,5.56,0,15.24,6.38,28.82,18.03,40.38,34.64,2.27,3.27,1.47,7.76-1.8,10.03-3.26,2.27-7.76,1.47-10.03-1.8-9.23-13.27-19.76-22.78-31.33-28.33-13.13,6.29-24.88,17.66-34.96,33.84-1.37,2.19-3.72,3.4-6.12,3.4Z" class="st7"/><path d="M1161.51,576.44c-1.3,0-2.62-.35-3.8-1.09-3.38-2.1-4.41-6.55-2.3-9.92,12.4-19.9,27.34-33.61,44.4-40.76,1.78-.75,3.78-.75,5.56,0,15.24,6.38,28.82,18.03,40.38,34.64,2.27,3.27,1.47,7.76-1.8,10.03-3.27,2.27-7.76,1.47-10.03-1.8-9.23-13.27-19.76-22.78-31.33-28.33-13.13,6.29-24.88,17.66-34.96,33.84-1.37,2.19-3.72,3.4-6.12,3.4Z" class="st7"/></g><g><path d="M1146.64,555.76c-.1,0-.2,0-.3,0-3.98-.16-7.07-3.52-6.9-7.49l4.44-108.13c.16-3.97,3.53-7.06,7.49-6.9,3.98.16,7.07,3.52,6.9,7.49l-4.44,108.13c-.16,3.87-3.35,6.91-7.19,6.91Z" class="st7"/><path d="M1151.72,447.74c-7.2,0-13.89-3.23-18.36-8.87-3.88-4.9-5.63-11.02-4.91-17.23.72-6.21,3.82-11.77,8.72-15.65,4.12-3.26,9.28-5.06,14.53-5.06,7.2,0,13.89,3.23,18.36,8.87,3.88,4.9,5.63,11.02,4.9,17.23-.72,6.21-3.82,11.77-8.72,15.65-4.12,3.26-9.28,5.06-14.52,5.06ZM1151.7,415.33c-2.04,0-3.97.67-5.58,1.95-1.89,1.49-3.08,3.63-3.35,6.02-.28,2.39.39,4.74,1.89,6.63,1.72,2.17,4.29,3.41,7.07,3.41,2.04,0,3.97-.67,5.58-1.95,1.89-1.49,3.08-3.63,3.35-6.02.28-2.39-.39-4.74-1.89-6.63-1.72-2.17-4.29-3.41-7.07-3.41Z" class="st7"/></g><g><path d="M1178.77,551.04c-.15,0-.29,0-.44-.01-3.97-.24-7-3.65-6.76-7.62l4.26-71.11c.24-3.97,3.65-6.99,7.62-6.76,3.97.24,7,3.65,6.76,7.62l-4.26,71.11c-.23,3.82-3.4,6.77-7.18,6.77Z" class="st7"/><path d="M1185.21,480.17c-7.98,0-15.34-4-19.67-10.69-7.01-10.84-3.9-25.36,6.94-32.37,3.8-2.46,8.19-3.76,12.7-3.76,7.98,0,15.34,4,19.67,10.7,3.4,5.25,4.54,11.51,3.23,17.62-1.31,6.11-4.93,11.35-10.18,14.75-3.8,2.46-8.19,3.76-12.7,3.76ZM1185.18,447.76c-1.73,0-3.41.5-4.88,1.45-4.17,2.7-5.36,8.28-2.67,12.45,1.67,2.58,4.5,4.11,7.57,4.11,1.73,0,3.41-.5,4.87-1.44,2.02-1.31,3.41-3.32,3.91-5.67.5-2.35.06-4.76-1.24-6.78-1.67-2.58-4.5-4.11-7.57-4.11Z" class="st7"/></g><g><path d="M1066.47,548.63c-3.75,0-6.91-2.9-7.18-6.69l-4.87-68.7c-.28-3.97,2.71-7.41,6.68-7.69,3.98-.28,7.41,2.71,7.69,6.68l4.87,68.7c.28,3.97-2.71,7.41-6.68,7.69-.17.01-.35.02-.52.02Z" class="st7"/><path d="M1059.42,480.17h0c-4.51,0-8.9-1.3-12.7-3.76-5.25-3.4-8.86-8.63-10.17-14.75-1.31-6.11-.16-12.37,3.23-17.62,4.33-6.7,11.68-10.7,19.67-10.7,4.51,0,8.9,1.3,12.7,3.76,10.84,7.01,13.95,21.53,6.94,32.37-4.33,6.7-11.69,10.7-19.67,10.7ZM1059.45,447.76c-3.08,0-5.91,1.54-7.57,4.11-1.31,2.02-1.75,4.43-1.24,6.78.5,2.35,1.89,4.37,3.91,5.67,1.46.95,3.15,1.45,4.87,1.45,3.08,0,5.91-1.54,7.57-4.11,2.7-4.17,1.5-9.75-2.67-12.45-1.46-.95-3.15-1.45-4.88-1.45Z" class="st7"/></g><g><path d="M1099.26,552.74c-3.78,0-6.96-2.95-7.18-6.78l-6.25-105.11c-.24-3.97,2.79-7.38,6.76-7.62,3.99-.24,7.38,2.79,7.62,6.76l6.25,105.11c.24,3.97-2.79,7.38-6.76,7.62-.15,0-.29.01-.43.01Z" class="st7"/><path d="M1092.38,447.74h0c-5.25,0-10.41-1.8-14.53-5.06-10.12-8.02-11.83-22.77-3.81-32.89,4.47-5.64,11.16-8.87,18.36-8.87,5.25,0,10.41,1.8,14.53,5.06,4.9,3.88,8,9.44,8.72,15.65.72,6.21-1.02,12.33-4.9,17.23-4.47,5.64-11.16,8.87-18.36,8.87ZM1092.4,415.33c-2.77,0-5.35,1.24-7.07,3.41-3.08,3.89-2.43,9.56,1.46,12.65,1.61,1.27,3.54,1.95,5.58,1.95,2.77,0,5.35-1.24,7.07-3.41,1.49-1.88,2.16-4.24,1.89-6.63-.28-2.39-1.47-4.53-3.35-6.02-1.61-1.28-3.54-1.95-5.58-1.95Z" class="st7"/></g><g><path d="M1122.32,540.87h-.04c-3.98-.02-7.19-3.26-7.17-7.24l.63-132.16c.02-3.97,3.24-7.17,7.2-7.17h.04c3.98.02,7.19,3.26,7.17,7.24l-.63,132.16c-.02,3.97-3.24,7.17-7.2,7.17Z" class="st7"/><path d="M1122.31,408.82h0c-5.25,0-10.41-1.8-14.53-5.06-4.9-3.88-8-9.44-8.72-15.65-.72-6.21,1.02-12.33,4.91-17.23,4.47-5.64,11.16-8.87,18.36-8.87,5.25,0,10.41,1.8,14.53,5.06,4.9,3.88,8,9.44,8.72,15.65.72,6.21-1.02,12.33-4.9,17.23-4.47,5.64-11.16,8.87-18.36,8.87ZM1122.33,376.41c-2.77,0-5.35,1.24-7.06,3.41-1.49,1.89-2.16,4.24-1.89,6.63.28,2.39,1.47,4.53,3.35,6.02,1.61,1.27,3.54,1.95,5.58,1.95,2.77,0,5.35-1.24,7.07-3.41,1.49-1.88,2.16-4.24,1.89-6.63-.28-2.39-1.47-4.53-3.35-6.02-1.61-1.28-3.54-1.95-5.58-1.95Z" class="st7"/></g><path d="M1119.93,1235.27c-3.98,0-7.2-8.88-7.2-19.83v-320.77c0-10.95,3.23-19.83,7.2-19.83s7.2,8.88,7.2,19.83v320.77c0,10.95-3.23,19.83-7.2,19.83Z" class="st7"/><path d="M1119.94,947.51c-.23,0-.47-.01-.71-.03-5.88-.57-13.07-.83-23.31-.83-4.6,0-9.38.05-14.45.1-5.47.05-11.13.11-16.99.11h0c-28.22,0-61.45-1.3-93.98-10.91-37.64-11.12-67.26-31.03-90.56-60.87-19.26-24.35-33.29-50.8-41.69-78.57-6.73-22.25-9.86-45.38-9.32-68.74.93-39.86,12.18-66.44,12.65-67.55,1.18-2.73,3.91-4.46,6.89-4.35,2.97.11,5.57,2.04,6.54,4.86.26.76,27.07,77.4,95.12,172.64,34.66,42.43,79.16,67.29,110.41,80.67,32.74,14.02,58.2,18.75,60.43,19.14,3.5.49,6.18,3.5,6.18,7.13,0,3.86-3.04,7.01-6.85,7.2-.12,0-.24,0-.36,0ZM848.97,684.8c-2.66,10.93-5.3,26.06-5.66,43.93-1.01,49.7,15.12,95.94,47.94,137.45,45.48,58.25,110.13,66.27,173.22,66.27h0c1.04,0,2.08,0,3.11,0-3.97-1.52-8.09-3.18-12.33-4.99-32.9-14.04-79.81-40.22-116.45-85.16-.1-.12-.19-.24-.28-.36-49.62-69.41-77.36-128.1-89.57-157.13Z" class="st7"/><path d="M1119.93,947.51c-3.57,0-6.66-2.65-7.13-6.26-.51-3.85,2.12-7.41,5.95-8.05h0c.26-.04,26.47-4.56,60.59-19.17,31.24-13.38,75.74-38.24,110.41-80.67,68.05-95.24,94.86-171.88,95.12-172.64.97-2.81,3.57-4.74,6.54-4.85,2.96-.1,5.71,1.62,6.89,4.35.48,1.11,11.73,27.69,12.65,67.55.54,23.36-2.59,46.49-9.32,68.74-8.4,27.77-22.43,54.22-41.71,78.61-23.28,29.81-52.9,49.72-90.54,60.84-32.54,9.61-65.77,10.91-93.98,10.91-5.87,0-11.52-.06-17-.11-5.07-.05-9.85-.1-14.45-.1-10.23,0-17.42.26-23.31.83-.24.02-.47.03-.71.03ZM1172.27,932.44c1.03,0,2.07,0,3.12,0,63.09,0,127.74-8.02,173.19-66.24,41.09-51.97,48.76-103.79,47.96-138.11-.41-17.67-3.01-32.55-5.63-43.33-12.2,29.02-39.94,87.72-89.58,157.16-.09.12-.18.24-.28.36-36.64,44.95-83.55,71.12-116.45,85.16-4.25,1.81-8.37,3.47-12.33,4.99Z" class="st7"/></g><g><path d="M1143.22,1263.01c-18.82-18.82-19.55-20.37-20.67-22.72-12.12-25.59,18.95-53.32,24.7-58.14l191.71-192.82c.22-.22.44-.43.68-.63,2.46-2.14,60.58-52.49,95.16-69.31,21.32-10.37,43.5-20.35,65.93-29.66,75.66-31.41,106.5-51.43,122.23-79.34,4.64-8.24,21.44-35.36,42.59-38.26,7.75-1.06,15.04,1.38,20.54,6.88,9.79,9.79,13.56,28.54,11.85,58.98.12,8.55-1.79,78.37-91.83,126.67-13.77,7.65-30.96,15.36-47.58,22.81-15.53,6.96-31.59,14.16-43.79,20.88-11.2,6.17-15.96,10.2-17.95,12.34,1.87,1.26,5.57,3.26,12.59,5.58,10.28.24,77.27-.52,130.41-57.9,73.62-79.51,76.44-149.5,78.93-211.25.79-19.63,1.54-38.17,4.5-55.93,6.43-38.59,17.2-103.16,52.72-119.95,12.37-6.04,27.1-3.19,37.57,7.29,7.32,7.32,15.94,21.47,15.55,47.36.29,8.86.65,17.68,1.03,27.02,2.2,54.36,4.7,115.97-6.12,194.09-6.55,47.27-18.48,109.59-52.97,172.5-40.82,74.46-104.45,132.03-189.11,171.11-.12.06-.25.11-.38.17-22.6,9.56-53.96,13.37-87.15,17.4-44.75,5.44-95.47,11.6-117.24,33.38-18.02,18.02-29.03,52.87-37.87,80.99-7.5,29.43-22.37,49.21-40.84,54.31-10.05,2.77-25.69,2.42-43.12-15.01-.27-.27-.55-.55-.82-.83-4.04-3.87-76.71-73.47-111.23-108ZM1145.33,1228.57c1.4,1.6,5.29,5.78,15.92,16.41,35.14,35.14,110.25,107.05,111,107.77.12.11.23.23.35.34,7.29,7.56,13.73,10.64,19.02,9.18,8.9-2.46,18.14-17.06,23-36.33.06-.24.13-.47.2-.71,9.69-30.83,21.76-69.2,44.27-91.71,28-28,80.97-34.43,132.2-40.66,31.27-3.8,60.8-7.39,80.11-15.5,174.73-80.74,213.42-223.5,227.32-323.87,10.51-75.87,8.06-136.27,5.9-189.56-.38-9.5-.75-18.47-1.05-27.53,0-.22,0-.43,0-.65.34-18.73-5.54-26.67-8.08-29.21-1.63-1.63-4.9-4.12-8.38-2.39-.08.04-.15.07-.23.11-23.49,11.03-33.63,71.87-38.51,101.12-2.7,16.19-3.42,33.96-4.17,52.77-2.53,62.88-5.69,141.13-85.7,227.54-66.02,71.3-148.8,66.21-152.29,65.96-.99-.07-1.97-.26-2.92-.56-12.41-3.91-20.68-8.23-26.04-13.58-5.7-5.7-8.1-12.82-6.77-20.05,3.52-19.15,31.79-32.71,77.62-53.25,16.16-7.24,32.87-14.73,45.7-21.87.06-.03.12-.06.17-.09,33.43-17.92,56.78-40.86,69.42-68.2,9.38-20.3,9.06-35.66,9.05-35.82-.02-.43-.01-.77.01-1.19,1.68-29.01-2.71-37.64-4.04-39.55-4.07,1.04-14.34,9.61-23.24,25.41-21.31,37.83-63.77,60.95-134.67,90.38-21.96,9.12-43.68,18.88-64.55,29.04-30.31,14.75-84.44,61.18-89.25,65.34l-191.8,192.91c-.3.31-.62.6-.96.87-9.99,8.25-19.82,21.43-18.62,27.15Z" class="st7"/><path d="M1096.33,1262.99c-34.52,34.52-107.19,104.13-111.23,108-.27.28-.55.56-.82.83-17.43,17.43-33.07,17.79-43.12,15.02-18.47-5.1-33.35-24.88-40.84-54.31-8.84-28.11-19.85-62.97-37.87-80.99-21.78-21.78-72.5-27.94-117.24-33.38-33.19-4.03-64.55-7.84-87.15-17.41-.13-.05-.25-.11-.38-.17-84.67-39.08-148.29-96.65-189.11-171.11-34.48-62.9-46.42-125.23-52.97-172.5-10.82-78.12-8.32-139.73-6.12-194.08.38-9.34.74-18.17,1.03-27.03-.39-25.89,8.23-40.04,15.55-47.36,10.48-10.48,25.21-13.33,37.57-7.29,35.52,16.79,46.29,81.36,52.72,119.95,2.96,17.76,3.71,36.3,4.5,55.93,2.49,61.75,5.31,131.74,78.93,211.24,53.43,57.7,120.05,58.2,130.39,57.91,7.04-2.32,10.74-4.33,12.61-5.59-1.99-2.14-6.74-6.17-17.94-12.34-12.21-6.72-28.26-13.92-43.79-20.88-16.62-7.45-33.8-15.15-47.58-22.8-90.05-48.31-91.95-118.14-91.83-126.68-1.71-30.44,2.06-49.19,11.85-58.98,5.5-5.5,12.79-7.94,20.53-6.88,21.15,2.9,37.94,30.01,42.59,38.26,15.72,27.92,46.57,47.94,122.23,79.34,22.43,9.31,44.61,19.29,65.93,29.66,34.58,16.82,92.7,67.18,95.16,69.31.23.2.46.41.68.63l191.71,192.82c5.74,4.82,36.81,32.55,24.7,58.14-1.11,2.35-1.85,3.9-20.67,22.72ZM967.1,1352.93c.07-.07.13-.13.2-.2.76-.72,75.86-72.63,111-107.77,10.63-10.63,14.51-14.8,15.92-16.41,1.18-5.71-8.8-19.11-18.61-27.16-.33-.27-.65-.56-.96-.87l-191.8-192.91c-4.82-4.16-58.96-50.6-89.25-65.34-20.87-10.15-42.58-19.92-64.55-29.04-70.9-29.43-113.36-52.55-134.67-90.38-8.9-15.8-19.16-24.37-23.23-25.41-1.36,1.97-5.72,10.65-4.04,39.55.03.43.03.86,0,1.28,0,.06-.33,15.43,9.05,35.73,12.64,27.34,35.99,50.29,69.42,68.2.06.03.12.06.17.09,12.83,7.13,29.54,14.62,45.7,21.87,45.83,20.54,74.1,34.1,77.62,53.25,1.33,7.23-1.07,14.35-6.77,20.05-5.35,5.36-13.63,9.67-26.04,13.58-.95.3-1.92.48-2.92.56-3.49.25-86.27,5.34-152.29-65.96-80.01-86.41-83.17-164.66-85.7-227.54-.76-18.81-1.47-36.58-4.17-52.77-4.87-29.24-15.01-90.09-38.51-101.11-.08-.04-.15-.07-.23-.11-3.49-1.72-6.75.76-8.38,2.39-2.54,2.54-8.42,10.48-8.08,29.21,0,.22,0,.43,0,.65-.3,9.06-.66,18.04-1.05,27.54-2.16,53.29-4.61,113.69,5.9,189.55,13.9,100.37,52.59,243.13,227.32,323.87,19.31,8.11,48.84,11.7,80.11,15.5,51.23,6.23,104.2,12.66,132.19,40.66,22.51,22.51,34.58,60.88,44.27,91.71.07.23.14.47.2.71,4.86,19.28,14.1,33.88,23,36.33,5.29,1.46,11.75-1.63,19.02-9.18.05-.05.1-.1.15-.15Z" class="st7"/></g><path d="M1566.17,701.49V170.66" class="st6"/><line x1="1516.99" x2="1565" y1="286.9" y2="166" class="st6"/><line x1="1616.02" x2="1565" y1="286.9" y2="166" class="st6"/></g><g id="Warstwa_5" class="st1"><g class="st1"><path d="M498.43,1117.25c3.25-30.25,21.87-66.23,41.69-88.97,10.04-11.52,31.02-36.58,46.29-20.97,17.92,18.3-20.66,43.76-31.11,59.28-68.75,102.08,52.22,245.2,159.07,226.14,45.76-8.17,111.74-74.59,141.37-110.69,31.92-38.9,40.21-98.13,11.53-141.05-4.29,6.37-24.74,21.41-26.25,27.06-1.51,5.61,3.68,15.75,4.26,22.63,1.8,21.16-2.71,43.63-15.15,61.11-11.87,16.68-67.21,70.87-84.23,84.58-58.98,47.5-115.48,2.53-153.84-45.09-25.72-31.94-26.43-75.04-1.07-107.5,13.99-17.9,66.57-70.96,84.35-84.46,18.94-14.38,41.37-18.21,64.76-16.21,6.8.58,14.41,5.9,20.28,4.3,5.7-1.55,20.66-21.94,27.06-26.26-44.56-28.45-95.22-20.59-137.15,8.49-10.65,7.38-18.1,23.65-33.88,12.26-24.3-17.55,13.97-42.31,27.88-50.63,52.75-31.53,118.15-30.02,169.82,2.64l48.63-47.88c-34.95-59.31-33.84-128.77,7.03-184.84,15.44-21.17,46.74-58.8,75.82-43.84,4.11,2.11,41.42,39.96,43.56,44.31,20.54,41.61-53.06,58.59-42.1,103.39,51.27-21.82,98.03,24.67,76.31,76.31,46.2,11.23,65.08-70.49,108.74-38.2,5.22,3.86,39.26,38.6,40.53,42.72,8.29,26.87-13.05,45.63-31.31,61.44-58.53,50.68-131.83,57.21-198.95,18.36l-47.88,48.63c40.82,67.17,31.58,140.67-19.09,198.97-39.2,45.11-102.55,110.12-164.25,116.72h-39.31c-17.46-4.66-35.36-8.44-51.75-16.47-25.41-12.45-79.99-65.38-95.81-89.19-13.67-20.57-20.34-44.02-25.88-67.78.97-12.64-1.33-26.93,0-39.31ZM929.71,689.48c-51.19,40.39-76.7,110.06-39.31,168.73,4.32-6.4,24.7-21.36,26.26-27.06,1.7-6.26-3.5-12.18-4.1-18.17-4.48-44.87,12.5-66.41,43.58-94.94l-26.43-28.55ZM967.2,835.61c-3.42.78-6.17,2.88-8.63,5.25l-187.27,187.36c-15.07,19.35,9.39,44.02,28.91,28.91l188.47-188.47c12.34-17.64.51-38.04-21.48-33.05ZM1110.4,872.29c-28.29,30.86-50.55,48.02-94.94,43.58-6-.6-11.91-5.8-18.17-4.1-5.7,1.55-20.66,21.94-27.06,26.26,58.66,37.4,128.36,11.86,168.73-39.31l-28.55-26.43ZM734.31,1017.81c-14.36-1.6-28.93,3.07-40.47,11.56-14.99,11.02-59.42,56.43-71.72,71.66-20.48,25.36-18.64,48.12,1.25,72.8,26.99,33.49,62.88,65.68,104.02,32.47,14.2-11.46,72.38-69.71,78.34-83.54,3.88-9,5.63-18.84,4.88-28.65-51.94,13.13-89.44-24.36-76.3-76.3Z"/><path d="M1508.99,146c23.76,5.54,47.21,12.2,67.78,25.88,27.51,18.29,73.67,64.97,88.42,94.27,8.46,16.8,12.5,35.26,17.24,53.29-.84,11.97,1.16,25.24,0,37-1.24,12.59-7.76,34.23-12.76,46.21-6.67,16-33.21,66.55-54.35,42.87-13.92-15.58,11.4-35.15,18.95-50.52,36.44-74.16-6.94-136.59-62.82-183.12-39.54-32.93-93.21-40.44-139.52-16.9-24.37,12.39-105.26,92.78-119.06,116.81-21.52,37.45-23.71,86.67.71,123.23,4.29-6.37,24.74-21.41,26.25-27.06,1.51-5.61-3.68-15.76-4.26-22.63-1.77-20.73,2.38-42.29,14.23-59.72,9.57-14.07,74.33-78.77,88.65-89.41,57.63-42.79,115.61,3.94,151.41,49.77,21.52,27.55,24.52,62.82,8.19,93.64-8.17,15.42-78.19,86.65-93.86,98.08-17.82,13-39.35,17.01-61.1,15.17-6.88-.58-17.01-5.77-22.63-4.26-5.65,1.52-20.7,21.96-27.06,26.25,42.42,28.24,100.96,20.73,139.81-10.46,13.65-10.96,32.17-42.47,52.05-33.43,29.88,13.58-22.62,55.58-34.86,64.5-57.04,41.58-124.23,40.95-184.84,7.06l-47.97,48.61c40.88,64.55,31.56,141.11-17.86,197.78-15.15,17.37-32.48,36.96-57.74,32.22-6.94-1.3-44.35-37.07-48.58-43.91-21.44-34.7,22.37-50.39,34.69-76.14,5.31-11.1,6.89-20.02,5.68-32.45-47.8,18.26-92.22-26.48-73.99-73.99-46.08-12.74-63.93,62.72-105.7,42.1-4.35-2.14-42.19-39.45-44.31-43.56-13.57-26.39,12.86-50.06,30.99-65.55,12.16-10.39,46.66-40.11,58.59-17.11,10.96,21.14-15.82,27.68-28.54,37.91-10.12,8.14-18.99,20.19-28.91,28.86,7.46,5.01,18.71,22.12,25.41,25.58,2.22,1.14,2.36,1.14,4.59,0,6.34-3.26,19.92-21.59,27.97-27.69,19.18-14.53,41.95-17.41,65.52-15.04,5,.5,9.87,4.23,14.32,4.43,8.79.4,23.26-21.03,30.91-26.59-14.41-16.86-49.41-12.26-63.29-19.91-13.37-7.37-9.17-29.44,4.42-32.05,24.3-4.68,64.94,11.88,85.54,24.83,6.3-6.85,49.43-46.05,48.74-50.43-40.38-67.01-31-139.69,19.4-197.68,39.17-45.08,102.62-110.11,164.25-116.72h39.31ZM1446.55,458.16c7.19.5,13.35.18,20.38-1.56,17.69-4.38,78.43-65.08,91.8-81.64,20.48-25.36,18.64-48.12-1.25-72.8-26.99-33.49-62.88-65.68-104.02-32.47-15.37,12.4-60.45,56.56-71.66,71.72-8.4,11.37-12.61,26.42-11.54,40.46,50.23-25.69,101.74,26.05,76.29,76.29ZM1290.46,617.79c-4.32,6.4-24.7,21.36-26.26,27.06-1.7,6.26,3.5,12.18,4.1,18.17,4.43,44.39-12.72,66.65-43.58,94.94l26.43,28.55c50.98-40.19,76.97-110.32,39.31-168.73Z"/><path d="M1254.01,1036.88c14.68-2.42,23.27,1.44,32.93,12.21l72.95,118.97c13.3,51.33-78.43,64.73-113.17,59.99-22.22-3.03-32.04-18.96-31.41-40.23.94-31.75,6.25-91.24,12.14-122.01,2.88-15.02,10.48-26.29,26.55-28.94ZM1323.9,1179.58l-62.32-103.94-9.29,117.94c25.23,1.85,48.93-3.48,71.61-13.99Z"/><path d="M641.17,467.98c12.53-2.61,17.92.22,28.42,5.2,21.25,10.07,93.44,53.66,109.75,68.31,23.5,21.1,13.97,53.64-16.73,59.48-30.88,5.88-90.18,11.2-122.01,12.14-41.96,1.24-43.37-35.22-40.4-68.17,1.93-21.47,16.94-71.97,40.95-76.96ZM752.78,564.59l-103.94-60.06c-10.92,22.81-15.81,46.17-13.99,71.61l117.93-11.54Z"/><path d="M909.53,241.45c22.8-2.35,45.28,2.04,48.88,28.47,5.7,41.91-3.7,95.24.06,138.4-9.92,30.46-39.02,36.68-61.16,12.89-16.85-18.11-63.13-77.95-74.73-98.71-26.56-47.55,50.5-77.29,86.95-81.05ZM923.93,275.5c-26.54,1.22-50.55,11.25-71.72,26.63l71.72,93.62v-120.25Z"/><path d="M1418.17,870.34c43.87,2.47,95.24-5.15,138.23-.54,57.88,6.21,21.52,100.34-2.29,127.22-12.86,14.51-24.81,19.93-43.72,11.29-15.6-7.13-88.52-63.56-103.17-77.2-23.16-21.54-18.08-49.32,10.96-60.78ZM1552.93,904.5h-120.25l93.62,71.72c15.69-21.18,24.69-45.36,26.63-71.72Z"/><path d="M694.45,678.29c17.13-2.26,26.12,19.75,14.3,30.69-3.14,2.91-54.11,25.16-59.4,26.16-22,4.16-31.91-19.38-16.75-30.62,3.75-2.78,57.59-25.67,61.86-26.23Z"/><path d="M1536.2,738.41c17.13-2.26,26.12,19.75,14.3,30.69-3.14,2.91-54.11,25.16-59.4,26.16-22,4.16-31.91-19.38-16.75-30.62,3.75-2.78,57.59-25.67,61.86-26.23Z"/><path d="M1066.64,273.69c13.07-3.01,25.19,4.67,23.37,18.53-.73,5.57-22.96,56.43-26.72,61.36-12.33,16.14-34.17,5-30.13-16.26,1.11-5.84,20.88-51.66,24.4-56.54,2.8-3.88,3.93-5.91,9.08-7.1Z"/><path d="M1126.76,1115.44c13.07-3.01,25.19,4.67,23.37,18.53-.7,5.31-23.13,56.83-26.69,61.4-12.02,15.44-34.29,5.39-30.16-16.3,1.11-5.84,20.88-51.66,24.4-56.54,2.8-3.88,3.93-5.91,9.08-7.1Z"/><path d="M1428.75,1076.29c4.32-5.36,13.84-6.33,20.25-4.26,5.46,1.77,41.74,35.66,44.03,41.68,5.99,15.76-9.37,26.75-25.07,20.27-2.41-.99-36.16-30.02-38.62-33.06-4.82-5.97-5.34-18.75-.59-24.65Z"/><path d="M708.06,334c4.9-.27,8.71,2.3,12.47,5.01,4.19,3.03,32.31,33.58,34.28,37.38,9.63,18.58-8.64,32.87-26.05,23.75-7.94-12.68-35.23-32.95-36.22-47.19-.7-10.13,5.02-18.36,15.52-18.94Z"/></g><path d="M974.22,830.6c-3.89.37-8.35,2.79-11.36,5.3l-194.73,192.81c-12.37,19.73,9.97,41.73,29.83,29.53l194.79-192.75c12.7-14.38.35-36.66-18.53-34.88Z" class="st0"/><path d="M1389.55,409.72c-3.79.36-8.13,2.74-11.06,5.22l-189.59,189.64c-12.04,19.41,9.71,41.05,29.04,29.04l189.64-189.59c12.36-14.14.34-36.06-18.04-34.31Z" class="st0"/><g><path d="M1086.07,1335c-16.74-10.5-11.54-36.83-14.39-55.59-4.15-27.35-17.59-69.55-35.15-91.04-11.34-13.86-28.28-10.02-45.77-9.48-57.32,1.76-116.75,18.5-171.31-7.46-38.44-18.28-57.25-57.25-57.08-99.12.05-13.08,10.25-48.62,8.46-56.34-1.5-6.48-15.74-7.77-22.04-14.77-13.82-15.35-5.22-41.75,4.41-57.41-3.62-4.86-10.04-4.69-14.74-7.97-25.9-18.04.89-59.91-3.65-84.69-29.44-7.11-64.94-9.73-78.92-41.52-21.34-48.52,25.78-86.51,51.2-123.18,15.52-22.39,31.19-38.05,30.34-66.21-13.45-444.24,534.18-628.82,786.44-277.09,131.12,182.82,99.06,434.3-72.99,577.76,29.7-4.04,40.64,29.67,7.38,37.2-16.09,3.64-54.66,9.51-70.61,9.9-14.17.35-21.36-10.49-19.28-24l31.91-79.99c10.8-10.48,30.25-7.15,32.2,8.9.79,6.49-3.25,11.53-1.12,16.98,163.06-141.47,182.96-388.29,41.34-552.95-240-279.04-701.65-110.96-700.48,255.85.07,22.96,7.79,37.65-.97,61.44-14.23,38.66-61.03,78.77-79.42,113.3-23.65,44.4,38.47,39.33,61.43,52.55,18.83,10.85,19.95,30.23,18.47,50.29-.66,8.94-8.25,30.75-6.96,36.28.46,1.98,22.52,12.25,25.22,30.45,2.18,14.71-12.64,38.28-11.35,39.95.6.77,12.24,4.49,17,9.44,29.09,30.31-7.73,81.22,11.7,123.66,33.42,72.98,168.84,17.65,228.41,33.14,42.33,11.01,67.93,94.87,72.99,133.5,2.4,18.29,9.08,47.75-8.88,58.21h-13.77Z"/><path d="M1154.42,445.48c109.34-11.28,197.24,84.65,171.86,192.51-13.41,56.97-61.28,81.72-79.69,138.27-7.29,22.38-4.75,49.58-35.69,53.79-15.25,2.07-60.06,2.08-75.31,0-28.4-3.87-25.98-25.37-32.82-45.19-16.92-48.99-31.42-55.55-57.62-93.81-66.66-97.32-8.54-233.43,109.26-245.57ZM1205.27,793.44c3.42-25.63,14.04-52.68,27.24-74.85,20.47-34.39,54.64-54.29,59.8-98.51,18.09-155.04-197.46-189.18-234.41-50.87-22.37,83.74,35.36,104.58,65.29,165.42,8.62,17.53,16.42,39.36,17.96,58.9l64.12-.09Z" class="st8"/><path d="M1131.3,849.1c9.1-2.03,74.82-2.04,83.91,0,18.03,4.04,17.9,32.99-1.94,36.08-11.45,1.79-71.57,1.97-81.97-.35-17.58-3.92-17.61-31.8,0-35.73Z" class="st8"/><path d="M1000.07,406.92c12.07.33,45.34,33.1,44.27,45.35-1.24,14.18-16.85,21.24-29.21,14.14-3.3-1.89-29.08-27.67-30.96-30.95-7.85-13.72.23-28.96,15.9-28.53Z" class="st5"/><path d="M1076.28,353.43c7.47-1.55,12.99.9,17.72,6.58,3.6,4.32,17.9,37.84,18.6,43.41,2.3,18.31-22.35,29.19-34.48,11.47-3.53-5.16-17.56-39.49-17.24-44.52.43-6.56,8.88-15.59,15.39-16.94Z" class="st5"/><path d="M1149.65,904.17c7.18-1.59,42.31-1.55,48.95.53,16.41,5.14,15.33,32.57-3.7,35.55-7.81,1.22-40.15,1.23-47.01-.9-15.27-4.74-14.57-31.56,1.76-35.18Z" class="st8"/><path d="M943.27,486.49c5.35-.86,42.52,13.88,47.64,17.92,16.4,12.94,5.56,35.06-15.93,32.07-4.81-.67-36.92-13.94-40.48-16.96-12.47-10.58-7.52-30.41,8.78-33.03Z" class="st5"/><path d="M1268.91,418.86c-11.91,11.08-32.06,2.67-31.53-14.11.17-5.51,14.86-41.52,18.36-45.45,10.93-12.24,32.89-4.54,32.34,13.15-.17,5.61-15.44,42.93-19.17,46.41Z" class="st5"/><path d="M1402.08,486.59c17.19-1.44,26.62,18.56,15.43,31.56-4.59,5.34-42.94,19.3-50.43,18.64-13.83-1.23-20.05-19.67-11.36-29.95,3.17-3.76,40.9-19.79,46.36-20.24Z" class="st5"/><path d="M924.86,580.72c9.77-1.75,38.68-1.85,47.1,2.28,15.14,7.42,13.42,31.01-4.19,33.75-7.1,1.1-43.78,1.17-49.14-1.06-14.52-6.04-13.02-31.52,6.23-34.96Z" class="st5"/><path d="M1383.71,580.7c9.27-1.87,39.01-1.67,47.13,2.29,16.01,7.81,13.09,31.07-4.2,33.75-7.09,1.1-43.78,1.16-49.14-1.06-14.87-6.18-12.53-31.2,6.21-34.98Z" class="st5"/><path d="M1170.34,335.08c8.48-1.76,18.62,3.72,21.82,11.67,2.8,6.94,2.99,40.25.71,47.71-5.28,17.25-32.46,17.74-35.62.97-1.23-6.52-1.23-41.54,0-48.07,1-5.3,7.94-11.21,13.1-12.28Z" class="st5"/><path d="M1349.11,406.49c12.88-.71,23.42,14.06,17.95,26.82-.93,2.16-30.56,31.47-33.4,33.1-17.25,9.9-33.86-6.98-26.14-23.85,2.52-5.52,34.99-35.7,41.6-36.07Z" class="st5"/></g></g><g id="Warstwa_6"><g><g><path d="M1107.45,861.53c-62.75,0-113.8-51.05-113.8-113.8s51.05-113.8,113.8-113.8,113.8,51.05,113.8,113.8-51.05,113.8-113.8,113.8ZM1107.45,656.16c-50.49,0-91.57,41.08-91.57,91.57s41.08,91.57,91.57,91.57,91.57-41.08,91.57-91.57-41.08-91.57-91.57-91.57Z" class="st3"/><path d="M1030.67,1152.15c-5.96,0-10.9-4.73-11.1-10.74-.05-1.43-5.11-143.49-25.69-209.73-6.43-20.68-13.28-40.73-19.91-60.13-15.16-44.35-30.83-90.22-41.59-144.68-10.69-54.16,27.97-91.96,72.73-135.73,24.99-24.44,53.26-52.08,76.38-86.08l13.36-105.2c.77-6.09,6.34-10.4,12.43-9.63,6.09.77,10.4,6.34,9.63,12.43l-14.02,110.42-1.46,2.18c-24.67,36.91-54.47,66.06-80.77,91.77-41.8,40.88-74.82,73.17-66.46,115.54,10.46,52.99,25.2,96.12,40.81,141.79,6.68,19.54,13.58,39.74,20.1,60.72,21.46,69.09,26.47,209.62,26.67,215.57.21,6.13-4.59,11.28-10.73,11.49-.13,0-.26,0-.39,0Z" class="st3"/><path d="M1184.23,1152.15c-.13,0-.26,0-.39,0-6.13-.21-10.94-5.35-10.73-11.49.2-5.95,5.21-146.48,26.67-215.57,6.52-20.98,13.42-41.18,20.1-60.71,15.61-45.67,30.35-88.8,40.81-141.8,8.36-42.36-24.66-74.65-66.46-115.54-26.3-25.72-56.1-54.86-80.77-91.77l-1.46-2.18-14.02-110.42c-.77-6.09,3.54-11.65,9.63-12.43,6.08-.78,11.65,3.54,12.43,9.63l13.36,105.2c23.12,33.99,51.38,61.63,76.38,86.08,44.76,43.77,83.42,81.58,72.73,135.73-10.75,54.46-26.43,100.33-41.59,144.68-6.63,19.39-13.48,39.44-19.9,60.12-20.58,66.26-25.64,208.3-25.68,209.73-.2,6.01-5.14,10.74-11.1,10.74Z" class="st3"/><path d="M1016.11,1237.59c4.39-31.11,4.08-90.31,4.08-90.91-.05-7.92,4.89-14.38,11.03-14.44h.09c6.1,0,11.07,6.34,11.11,14.22.02,2.54.32,62.53-4.44,96.26-7.27,51.53-26.74,29.43-21.87-5.13Z" class="st3"/><path d="M1176.06,1245.11c-6.22-38.27-2.38-107.02-2.21-109.93.45-7.89,5.76-13.83,11.9-13.24,6.12.58,10.72,7.45,10.27,15.35-.04.67-3.77,67.63,1.8,101.94,5.58,34.38-13.43,57.14-21.76,5.88Z" class="st3"/></g><path d="M978.92,1004.43c-1.23,0-2.48-.21-3.71-.67-22.73-8.45-44.78-19.16-65.52-31.84-54.52-33.33-100.13-80.23-131.89-135.64-32.75-57.14-50.07-122.35-50.07-188.58,0-101.43,39.5-196.78,111.22-268.5,71.72-71.72,167.08-111.22,268.5-111.22s196.78,39.5,268.51,111.22c71.72,71.72,111.22,167.08,111.22,268.5,0,71.31-19.88,140.81-57.5,200.99-36.58,58.53-88.36,106.03-149.74,137.38-12.96,6.62-26.44,12.55-40.06,17.61-5.51,2.05-11.64-.75-13.69-6.26-2.05-5.51.75-11.64,6.27-13.69,12.85-4.78,25.56-10.37,37.8-16.62,120.66-61.63,195.62-184.02,195.62-319.41,0-197.64-160.79-358.43-358.43-358.43s-358.43,160.79-358.43,358.43c0,125.9,64.21,240.31,171.77,306.05,19.58,11.97,40.38,22.07,61.83,30.05,5.51,2.05,8.32,8.18,6.27,13.69-1.59,4.29-5.66,6.94-9.98,6.94Z" class="st3"/><path d="M1249.83,937.75c-3.87,0-7.61-2.12-9.49-5.81-2.67-5.24-.6-11.65,4.64-14.32,101.98-52.08,165.33-155.51,165.33-269.92,0-166.99-135.86-302.86-302.86-302.86s-302.86,135.86-302.86,302.86c0,106.38,54.27,203.07,145.18,258.63,5.02,3.07,6.6,9.62,3.53,14.64-3.07,5.02-9.62,6.6-14.64,3.53-97.29-59.47-155.37-162.94-155.37-276.8,0-178.74,145.41-324.15,324.15-324.15s324.15,145.41,324.15,324.15c0,122.45-67.8,233.14-176.94,288.88-1.55.79-3.2,1.17-4.83,1.17Z" class="st3"/><path d="M1116.04,250.08c-3.07,0-6.13-1.27-8.33-3.75-1.32-1.5-5.28-6.96-.65-14.5.61-1,1.38-2.09,2.34-3.47,4.13-5.89,12.71-18.15,13.46-31.31.42-7.32-5.16-15.9-11.07-24.98-7.48-11.5-15.97-24.54-15.09-39.97,1.55-27.3,19.03-44.63,19.78-45.36,4.4-4.29,11.43-4.19,15.72.2,4.27,4.38,4.19,11.38-.16,15.67-.32.33-12.1,12.47-13.14,30.75-.46,8.15,5.36,17.1,11.53,26.58,7.25,11.14,15.47,23.76,14.63,38.37-1.11,19.46-12.14,35.22-17.45,42.8-.36.52-.78,1.11-1.1,1.58-.61,1.72-1.65,3.3-3.11,4.6-2.11,1.87-4.74,2.79-7.36,2.79Z" class="st3"/><path d="M911.85,300.2c-1.17,0-2.36-.19-3.53-.58-1.89-.63-8.05-3.39-7.81-12.23.03-1.17.15-2.5.3-4.18.63-7.17,1.93-22.08-4-33.84-3.3-6.55-12.42-11.19-22.08-16.1-12.23-6.22-26.1-13.26-33.05-27.07-12.31-24.42-5.83-48.17-5.55-49.17,1.66-5.91,7.81-9.35,13.71-7.68,5.89,1.66,9.32,7.76,7.7,13.65-.11.42-4.25,16.84,3.99,33.2,3.68,7.29,13.19,12.13,23.27,17.26,11.85,6.02,25.27,12.85,31.85,25.91,8.77,17.41,7.09,36.57,6.29,45.78-.06.63-.12,1.35-.16,1.92.33,1.79.22,3.69-.39,5.54-1.56,4.65-5.89,7.59-10.54,7.59Z" class="st3"/><path d="M760.04,445.69c-2.91,0-7.48-1.06-10.65-6.9-.56-1.03-1.12-2.24-1.83-3.77-3.04-6.52-9.36-20.09-20.38-27.31-6.13-4.02-16.35-3.48-27.17-2.9-13.7.73-29.23,1.56-42.16-6.92-22.87-15-29.14-38.8-29.39-39.8-1.51-5.95,2.08-12,8.03-13.51,5.93-1.51,11.96,2.06,13.49,7.97.13.46,4.75,16.72,20.05,26.75,6.83,4.48,17.49,3.91,28.78,3.31,13.27-.71,28.31-1.51,40.54,6.51,16.3,10.69,24.43,28.13,28.34,36.51.27.57.57,1.23.82,1.75,1.18,1.39,2.04,3.09,2.43,5,1.22,6.02-2.67,11.88-8.69,13.1-.49.1-1.27.21-2.23.21Z" class="st3"/><path d="M596.73,655.86c-.73,0-1.47-.02-2.22-.06-27.3-1.55-44.63-19.03-45.36-19.77-4.28-4.39-4.19-11.43.2-15.72,4.38-4.27,11.38-4.19,15.67.16.33.32,12.46,12.1,30.75,13.14,8.14.47,17.1-5.36,26.58-11.53,11.14-7.25,23.77-15.47,38.37-14.63,19.46,1.11,35.22,12.14,42.8,17.45.52.36,1.11.78,1.58,1.1,1.72.61,3.31,1.65,4.6,3.12,4.06,4.6,3.62,11.63-.98,15.69-1.5,1.32-6.96,5.27-14.49.64-1-.61-2.09-1.38-3.47-2.34-5.89-4.13-18.15-12.71-31.31-13.46-7.33-.4-15.9,5.16-24.98,11.07-10.95,7.12-23.28,15.15-37.75,15.15Z" class="st3"/><path d="M636.21,918.33c-9.65,0-16.26-1.8-16.77-1.95-5.91-1.67-9.35-7.8-7.68-13.71,1.66-5.89,7.76-9.32,13.65-7.7.43.11,16.84,4.25,33.2-3.99,7.29-3.68,12.13-13.19,17.26-23.27,6.02-11.85,12.85-25.28,25.91-31.86,17.41-8.77,36.57-7.09,45.78-6.29.63.06,1.35.12,1.92.16,1.79-.33,3.69-.23,5.54.4,5.82,1.95,8.95,8.25,7,14.07-.63,1.89-3.38,8.04-12.23,7.81-1.17-.03-2.5-.15-4.18-.3-7.17-.63-22.08-1.93-33.84,4-6.55,3.3-11.19,12.42-16.1,22.08-6.22,12.23-13.26,26.09-27.07,33.05-11.78,5.94-23.41,7.5-32.39,7.5Z" class="st3"/><path d="M817.74,1124.38c-4.96,0-9.48-3.35-10.76-8.38-1.51-5.93,2.06-11.96,7.97-13.49.43-.12,16.71-4.74,26.75-20.06,4.48-6.83,3.91-17.49,3.31-28.78-.71-13.27-1.51-28.31,6.51-40.54,10.69-16.3,28.12-24.43,36.5-28.34.57-.27,1.23-.57,1.75-.82,1.39-1.18,3.09-2.04,5-2.43,6.02-1.22,11.88,2.67,13.1,8.69.4,1.96,1.09,8.67-6.69,12.88-1.03.56-2.24,1.12-3.77,1.84-6.52,3.04-20.08,9.37-27.31,20.38-4.02,6.13-3.48,16.35-2.9,27.17.73,13.7,1.56,29.23-6.92,42.16-15,22.87-38.8,29.14-39.8,29.39-.92.23-1.84.35-2.75.35Z" class="st3"/><path d="M1368.09,1141.17c-1,0-2.01-.14-3.02-.42-5.89-1.66-9.32-7.76-7.7-13.65.11-.42,4.25-16.83-3.99-33.2-3.68-7.29-13.19-12.13-23.27-17.26-11.85-6.02-25.28-12.85-31.85-25.91-8.77-17.41-7.1-36.57-6.29-45.78.06-.63.12-1.35.16-1.92-.33-1.79-.23-3.69.39-5.54,1.95-5.82,8.25-8.96,14.07-7.01,1.89.63,8.06,3.39,7.82,12.23-.03,1.17-.15,2.5-.29,4.18-.63,7.17-1.93,22.08,4,33.84,3.3,6.55,12.42,11.19,22.08,16.1,12.23,6.22,26.09,13.27,33.05,27.07,12.31,24.42,5.84,48.17,5.56,49.17-1.38,4.9-5.84,8.1-10.69,8.1Z" class="st3"/><path d="M1575.66,945.87c-4.94,0-9.45-3.32-10.75-8.32-.12-.43-4.74-16.71-20.06-26.75-6.83-4.48-17.5-3.91-28.78-3.31-13.27.71-28.31,1.51-40.54-6.51-16.3-10.69-24.43-28.12-28.34-36.5-.27-.57-.57-1.23-.82-1.75-1.18-1.38-2.04-3.08-2.43-4.99-1.22-6.02,2.66-11.88,8.67-13.11,1.96-.4,8.67-1.1,12.89,6.68.56,1.03,1.12,2.24,1.83,3.77,3.04,6.52,9.37,20.08,20.38,27.31,6.13,4.02,16.35,3.48,27.17,2.9,13.7-.73,29.23-1.56,42.16,6.92,22.87,14.99,29.14,38.8,29.4,39.8,1.51,5.95-2.08,12-8.03,13.51-.92.23-1.84.35-2.75.35Z" class="st3"/><path d="M1556.24,682.71c-.68,0-1.37-.02-2.06-.06-19.46-1.11-35.22-12.14-42.79-17.44-.52-.36-1.11-.78-1.58-1.1-1.71-.61-3.3-1.65-4.59-3.11-4.07-4.6-3.64-11.62.96-15.69,1.5-1.32,6.96-5.28,14.5-.66,1,.61,2.09,1.38,3.47,2.34,5.89,4.13,18.16,12.71,31.31,13.46,7.33.4,15.9-5.16,24.98-11.07,11.5-7.48,24.53-15.98,39.97-15.09,27.3,1.55,44.63,19.03,45.36,19.77,4.28,4.4,4.19,11.43-.2,15.72-4.38,4.27-11.38,4.19-15.67-.16-.33-.32-12.47-12.1-30.75-13.14-8.16-.49-17.11,5.36-26.58,11.52-10.61,6.91-22.58,14.69-36.31,14.69Z" class="st3"/><path d="M1480.38,461.22c-5.25,0-9.76-.4-13.03-.68-.63-.06-1.35-.12-1.92-.16-1.79.33-3.68.23-5.53-.39-5.82-1.95-8.97-8.24-7.02-14.06.63-1.9,3.38-8.07,12.23-7.82,1.17.03,2.5.15,4.18.29,7.17.63,22.08,1.93,33.84-4,6.55-3.3,11.19-12.42,16.1-22.07,6.22-12.23,13.27-26.1,27.07-33.05,24.42-12.31,48.17-5.84,49.17-5.56,5.91,1.67,9.35,7.8,7.68,13.71-1.66,5.89-7.76,9.32-13.65,7.7-.38-.1-16.81-4.27-33.2,3.99-7.3,3.68-12.14,13.2-17.26,23.27-6.02,11.85-12.85,25.27-25.91,31.85-11.23,5.66-23.2,6.97-32.76,6.97Z" class="st3"/><path d="M1317.91,308.78c-5.17,0-9.8-3.63-10.88-8.89-.4-1.96-1.1-8.68,6.68-12.9,1.03-.56,2.24-1.12,3.77-1.83,6.52-3.04,20.08-9.37,27.31-20.38,4.02-6.13,3.48-16.35,2.9-27.17-.73-13.7-1.56-29.23,6.92-42.15,14.99-22.87,38.8-29.14,39.8-29.4,5.95-1.51,12,2.08,13.51,8.03,1.51,5.93-2.06,11.96-7.97,13.49-.43.12-16.71,4.74-26.75,20.06-4.48,6.83-3.91,17.49-3.31,28.78.71,13.27,1.51,28.31-6.51,40.54-10.69,16.3-28.12,24.43-36.5,28.34-.57.27-1.23.57-1.75.82-1.38,1.18-3.07,2.04-4.98,2.43-.75.15-1.5.23-2.24.23Z" class="st3"/><path d="M1010.63,261.7c-2.11,0-4.24-.6-6.13-1.85-1.66-1.1-6.9-5.36-4.38-13.84.33-1.12.79-2.37,1.37-3.96,2.46-6.76,7.58-20.82,4.9-33.73-1.49-7.18-9.1-14.02-17.16-21.26-10.21-9.17-21.77-19.57-24.92-34.7-1.25-6.01,2.61-11.89,8.62-13.14,6.01-1.25,11.89,2.61,13.14,8.62,1.66,8,9.6,15.13,18.01,22.69,9.88,8.88,21.09,18.95,24.06,33.27,3.97,19.09-2.61,37.17-5.78,45.85-.22.59-.46,1.27-.65,1.81-.14,1.81-.74,3.62-1.81,5.24-2.14,3.23-5.67,4.98-9.28,4.98Z" class="st3"/><path d="M826.39,362.95c-.23,0-.46,0-.69-.02-1.99-.12-8.66-1.19-10.72-9.79-.27-1.14-.5-2.45-.8-4.11-1.25-7.08-3.85-21.82-12.62-31.65-4.88-5.47-14.89-7.59-25.49-9.83-13.42-2.84-28.64-6.06-38.93-17.59-4.09-4.58-3.69-11.61.89-15.69,4.58-4.09,11.61-3.69,15.69.89,5.44,6.09,15.88,8.3,26.95,10.64,13,2.75,27.74,5.87,37.47,16.78,12.98,14.54,16.32,33.49,17.92,42.59.11.62.23,1.33.34,1.9.78,1.64,1.17,3.5,1.05,5.45-.36,5.9-5.25,10.44-11.08,10.44Z" class="st3"/><path d="M717.3,542.8c-2.63,0-5.89-.94-9.08-4.31-.81-.85-1.66-1.87-2.74-3.16-4.62-5.51-14.25-16.98-26.76-21.1-6.96-2.3-16.69.87-26.99,4.23-13.05,4.25-27.83,9.07-42.51,4.23-5.83-1.92-9-8.21-7.07-14.04,1.92-5.83,8.21-9,14.04-7.07,7.76,2.56,17.91-.75,28.66-4.25,12.63-4.12,26.95-8.79,40.84-4.2,18.51,6.11,30.88,20.84,36.82,27.93.41.48.87,1.04,1.25,1.48,1.5,1.04,2.77,2.46,3.64,4.2,2.73,5.5.49,12.17-5.01,14.9-.85.42-2.71,1.18-5.08,1.18Z" class="st3"/><path d="M612.5,788.43c-5.16,0-9.78-3.61-10.87-8.85-1.25-6.01,2.61-11.89,8.62-13.15,8-1.66,15.13-9.6,22.69-18.01,8.88-9.89,18.95-21.09,33.27-24.06,19.08-3.97,37.16,2.61,45.85,5.78.59.22,1.27.46,1.82.65,1.82.14,3.62.74,5.25,1.82,5.12,3.39,6.51,10.29,3.12,15.4-1.1,1.66-5.36,6.89-13.83,4.38-1.13-.33-2.38-.79-3.96-1.37-6.76-2.46-20.82-7.58-33.72-4.9-7.18,1.49-14.02,9.1-21.26,17.16-9.17,10.2-19.57,21.77-34.7,24.92-.76.16-1.52.23-2.27.23Z" class="st3"/><path d="M744.95,1018.18c-3.06,0-6.1-1.25-8.3-3.71-4.09-4.58-3.69-11.61.89-15.69,6.09-5.44,8.3-15.88,10.64-26.94,2.75-13,5.87-27.74,16.78-37.48,14.54-12.98,33.49-16.32,42.59-17.92.62-.11,1.33-.24,1.9-.34,1.64-.78,3.51-1.17,5.45-1.05,6.13.38,10.79,5.65,10.41,11.78-.12,1.99-1.19,8.65-9.79,10.71-1.14.27-2.45.5-4.11.8-7.08,1.25-21.83,3.85-31.65,12.62-5.48,4.88-7.59,14.89-9.84,25.49-2.84,13.42-6.06,28.64-17.59,38.93-2.12,1.89-4.76,2.82-7.4,2.82Z" class="st3"/><path d="M1469.47,1018.67c-3.06,0-6.1-1.25-8.3-3.71-5.44-6.09-15.88-8.3-26.94-10.64-13-2.75-27.74-5.87-37.48-16.78-12.98-14.54-16.32-33.49-17.92-42.59-.11-.62-.23-1.33-.34-1.9-.78-1.65-1.17-3.51-1.05-5.46.38-6.13,5.67-10.78,11.79-10.4,1.99.12,8.65,1.2,10.7,9.79.27,1.14.5,2.45.8,4.11,1.25,7.08,3.85,21.82,12.62,31.65,4.88,5.47,14.89,7.59,25.49,9.83,13.42,2.84,28.64,6.06,38.93,17.59,4.09,4.58,3.69,11.61-.89,15.69-2.12,1.89-4.76,2.82-7.4,2.82Z" class="st3"/><path d="M1541.5,798.89c-4.09,0-8.2-.55-12.28-1.89-18.51-6.1-30.87-20.84-36.82-27.92-.41-.48-.87-1.04-1.25-1.48-1.5-1.03-2.76-2.44-3.63-4.18-2.75-5.49-.52-12.17,4.97-14.91,1.79-.9,8.1-3.31,14.19,3.12.81.85,1.66,1.87,2.75,3.17,4.62,5.51,14.25,16.97,26.75,21.1,6.97,2.3,16.69-.87,26.99-4.23,13.05-4.25,27.83-9.07,42.51-4.23,5.83,1.92,9,8.21,7.07,14.04-1.92,5.83-8.21,9-14.04,7.07-7.76-2.56-17.91.75-28.66,4.25-8.93,2.91-18.7,6.1-28.57,6.1Z" class="st3"/><path d="M1536.32,566.99c-14.22,0-26.71-4.54-33.48-7.01-.59-.22-1.27-.46-1.81-.65-1.81-.14-3.61-.74-5.24-1.81-5.12-3.39-6.52-10.28-3.14-15.4,1.1-1.67,5.36-6.91,13.84-4.39,1.12.33,2.37.79,3.96,1.37,6.76,2.46,20.83,7.58,33.73,4.9,7.18-1.49,14.02-9.1,21.26-17.16,9.17-10.2,19.57-21.77,34.7-24.92,6.01-1.25,11.89,2.61,13.14,8.62,1.25,6.01-2.61,11.89-8.62,13.14-8,1.66-15.13,9.6-22.69,18.01-8.88,9.88-18.95,21.09-33.27,24.06-4.2.87-8.36,1.24-12.37,1.24Z" class="st3"/><path d="M1400.67,375.09c-.23,0-.45,0-.68-.02-6.13-.37-10.79-5.64-10.42-11.76.12-1.99,1.18-8.66,9.79-10.72,1.14-.27,2.45-.5,4.11-.8,7.08-1.25,21.83-3.85,31.66-12.62,5.47-4.88,7.59-14.89,9.83-25.49,2.84-13.42,6.06-28.64,17.59-38.93,4.58-4.09,11.61-3.69,15.69.89,4.09,4.58,3.69,11.61-.89,15.69-6.09,5.44-8.3,15.88-10.65,26.95-2.75,13-5.87,27.74-16.78,37.47-14.54,12.98-33.49,16.32-42.59,17.93-.62.11-1.33.23-1.9.34-1.45.69-3.06,1.07-4.76,1.07Z" class="st3"/><path d="M1220.85,266.15c-4.08,0-8-2.25-9.95-6.15-.89-1.79-3.31-8.1,3.12-14.19.85-.81,1.87-1.66,3.16-2.75,5.51-4.62,16.98-14.25,21.1-26.76,2.3-6.97-.87-16.69-4.23-26.99-4.25-13.05-9.07-27.83-4.23-42.51,1.92-5.83,8.21-9,14.04-7.07,5.83,1.92,9,8.21,7.07,14.04-2.56,7.76.75,17.91,4.25,28.65,4.12,12.64,8.79,26.96,4.2,40.85-6.1,18.51-20.84,30.88-27.92,36.82-.48.41-1.04.87-1.47,1.24-1.03,1.5-2.44,2.76-4.18,3.63-1.6.8-3.29,1.18-4.96,1.18Z" class="st3"/></g><path d="M746.9,1312.2c0-11.96,7.29-23.19,21.87-33.72,14.58-10.53,34.94-19.04,61.12-25.53,26.16-6.5,56.44-9.75,90.84-9.75s60.93,2.98,84.11,8.97c23.17,5.98,42.42,13.06,57.76,21.25,15.31,8.19,28.21,15.53,38.69,22.03,2.98,1.81,5.22,2.47,6.73,1.95,1.49-.52,4.1-1.56,7.85-3.12,19.43-7.8,37.94-15.14,55.51-22.02,17.56-6.89,37.38-12.47,59.44-16.76,22.04-4.29,48.78-6.43,80.18-6.43,29.16,0,55.69,3.51,79.62,10.53,23.92,7.02,42.98,15.98,57.19,26.9,14.19,10.92,21.31,22.09,21.31,33.53,0,10.39-6.17,20.33-18.5,29.82-12.34,9.48-29.72,17.21-52.15,23.19-22.43,5.98-48.98,8.97-79.62,8.97-26.92,0-48.78-2.34-65.61-7.02s-30.84-9.23-42.05-13.64c-8.97-3.64-16.65-6.89-22.99-9.75-6.36-2.86-14.4-6.5-24.11-10.91-6.73-3.38-11.41-5.07-14.02-5.07s-5.8,1.04-9.53,3.12c-19.45,9.87-38.52,18.58-57.19,26.12-18.7,7.53-38.88,13.45-60.56,17.74-21.69,4.29-47.1,6.43-76.26,6.43-38.88,0-73.28-3.77-103.18-11.3-29.91-7.54-53.46-17.15-70.65-28.85s-25.79-23.91-25.79-36.64ZM779.42,1317.66c0,11.43,12.14,20.98,36.45,28.65,24.29,7.66,52.88,11.5,85.79,11.5,23.17,0,45.23-2.28,66.17-6.82,20.92-4.55,40.55-10.33,58.88-17.35,18.31-7.02,34.94-14.3,49.91-21.83,3.73-1.56,6.54-2.92,8.41-4.09,1.86-1.17,2.8-2.41,2.8-3.7,0-1.04-2.24-2.6-6.73-4.68-19.45-8.32-39.08-14.56-58.88-18.71-19.82-4.16-47.66-6.24-83.55-6.24-26.18,0-51.41,1.69-75.7,5.07-24.3,3.37-44.3,8.32-60,14.81-15.7,6.49-23.55,14.29-23.55,23.39ZM1164.09,1330.14c21.68,9.09,45.59,15.01,71.77,17.74,26.16,2.73,56.44,4.09,90.84,4.09,31.4,0,58.49-2.8,81.31-8.38,22.8-5.59,34.2-14.1,34.2-25.53,0-5.98-4.87-11.96-14.58-17.93-9.73-5.98-22.81-10.98-39.25-15.01-16.45-4.03-34.77-6.04-54.95-6.04-28.42,0-50.85,1.88-67.29,5.65-16.45,3.76-31.59,9.09-45.42,15.98-13.84,6.88-31.59,14.87-53.27,23.97-1.51.78-2.8,1.69-3.93,2.73-1.12,1.04-.95,1.95.56,2.73Z" class="st3"/></g></svg>