<svg xmlns="http://www.w3.org/2000/svg" xmlns:xlink="http://www.w3.org/1999/xlink" viewBox="0 0 2200 1466"><defs><style>.st0{fill:#193f3a}.st1{fill:#ce2828}.st2{fill:none;stroke:#39a935;stroke-linejoin:round;stroke-width:21.68px}.st3{fill:#252853}.st4{fill:#8c8c8c}.st5{display:none}.st6{fill:#6d4135}</style></defs><g id="background" class="st5"><image width="512" height="512" transform="translate(1556.46 101.14) scale(.75)"/></g><g id="Objects" class="st5"><g><path d="M1732.47,487.27c-20.31-48.02-46.27-92.85-77.54-133.99l-35.52-4.79-56.19,56.19c30.08,37.36,54.73,78.57,73.55,123.06,27.11,64.1,40.85,132.1,40.85,202.14s-13.74,138.04-40.85,202.14c-26.16,61.84-63.58,117.35-111.22,164.99-47.64,47.64-103.15,85.06-164.99,111.22-64.1,27.11-132.1,40.85-202.14,40.85s-138.04-13.74-202.14-40.85c-61.84-26.16-117.35-63.58-164.99-111.22-47.64-47.64-85.06-103.16-111.22-164.99-27.1-64.1-40.85-132.1-40.85-202.14s13.75-138.05,40.85-202.14c26.16-61.84,63.58-117.35,111.22-164.99,47.64-47.64,103.15-85.06,164.99-111.22,64.1-27.11,132.1-40.85,202.14-40.85s138.04,13.74,202.14,40.85c44.49,18.82,85.7,43.47,123.06,73.55l56.19-56.19-4.79-35.52c-41.14-31.28-85.97-57.23-133.99-77.54-76.97-32.56-158.59-49.06-242.61-49.06s-165.64,16.5-242.61,49.06c-74.24,31.4-140.85,76.3-197.99,133.45-57.15,57.15-102.05,123.76-133.45,197.99-32.56,76.97-49.06,158.6-49.06,242.61s16.5,165.64,49.06,242.61c31.4,74.23,76.3,140.84,133.45,198,57.15,57.14,123.77,102.04,197.99,133.44,76.97,32.56,158.59,49.06,242.61,49.06s165.64-16.5,242.61-49.06c74.24-31.4,140.84-76.3,198-133.45,57.14-57.15,102.04-123.77,133.44-197.99,32.56-76.96,49.06-158.59,49.06-242.61s-16.5-165.65-49.06-242.61Z" class="st1"/><path d="M1543.91,567.01c-13.72-32.45-31.29-62.74-52.5-90.52l-74.36,74.36c36.31,52.2,55.84,114.11,55.84,179.04,0,84-32.71,162.97-92.11,222.37-59.39,59.4-138.37,92.12-222.37,92.12s-162.97-32.71-222.37-92.12c-59.4-59.39-92.11-138.37-92.11-222.37s32.71-162.97,92.11-222.37c59.39-59.4,138.37-92.11,222.37-92.11,64.93,0,126.84,19.54,179.04,55.84l74.36-74.36c-27.79-21.21-58.08-38.78-90.52-52.5-51.61-21.83-106.41-32.9-162.87-32.9s-111.25,11.07-162.87,32.9c-49.83,21.08-94.57,51.24-132.98,89.64-38.4,38.41-68.56,83.15-89.64,132.98-21.83,51.61-32.9,106.41-32.9,162.87s11.07,111.25,32.9,162.87c21.08,49.83,51.24,94.57,89.64,132.98,38.41,38.4,83.15,68.56,132.98,89.64,51.62,21.83,106.41,32.9,162.87,32.9s111.26-11.08,162.87-32.9c49.83-21.08,94.57-51.24,132.98-89.64,38.4-38.41,68.56-83.15,89.64-132.98,21.83-51.62,32.9-106.41,32.9-162.87s-11.07-111.26-32.9-162.87Z" class="st1"/><path d="M1344.04,623.86l-79.15,79.15c2.17,8.69,3.29,17.69,3.29,26.87,0,29.32-11.41,56.87-32.14,77.61-20.73,20.73-48.29,32.14-77.61,32.14s-56.87-11.41-77.6-32.14c-20.73-20.73-32.15-48.29-32.15-77.61s11.42-56.88,32.15-77.61c20.73-20.73,48.28-32.14,77.6-32.14,9.18,0,18.18,1.12,26.87,3.29l79.15-79.15c-31.93-18.3-68.23-28.05-106.02-28.05-57.07,0-110.73,22.23-151.09,62.58-40.35,40.36-62.58,94.01-62.58,151.09s22.23,110.73,62.58,151.09c40.36,40.35,94.01,62.58,151.09,62.58s110.73-22.23,151.09-62.58c40.35-40.36,62.58-94.01,62.58-151.09,0-37.8-9.75-74.1-28.05-106.02Z" class="st1"/><path d="M1805.78,197.28l-35.95-35.95,28.69-28.69c11.84-11.84,11.84-31.03,0-42.86-11.84-11.84-31.03-11.84-42.86,0l-28.69,28.69-35.95-35.95c-10.96-10.96-28.72-10.96-39.68,0l-87.5,87.5c-6.19,6.19-9.14,14.91-7.97,23.59l11.4,84.55-430.29,430.29c-11.84,11.84-11.84,31.03,0,42.86,5.92,5.92,13.67,8.88,21.43,8.88s15.51-2.96,21.43-8.88l430.29-430.29,84.55,11.4c8.68,1.17,17.4-1.78,23.59-7.97l87.5-87.5c10.96-10.96,10.96-28.72,0-39.68Z" class="st6"/></g></g><g id="Warstwa_3" class="st5"><g><path d="M1102.95,480.51c-116.21,0-210.76-94.55-210.76-210.76s94.55-210.76,210.76-210.76,210.76,94.55,210.76,210.76-94.54,210.76-210.76,210.76ZM1102.95,91.42c-98.33,0-178.33,80-178.33,178.33s80,178.33,178.33,178.33,178.33-80,178.33-178.33-80-178.33-178.33-178.33Z" class="st0"/><path d="M850.88,1032.67c-2.51,0-4.51-.32-6.27-.78-23.41-5.94-40.04-33.33-50.74-83.7-7.62-35.87-10.7-76.2-11.05-101.99l-.17-12.09c-.73-50.33-1.48-102.37,5.35-147.79,16.73-111.36,80.17-167.82,188.55-167.82h191.57c8.95,0,16.21,7.26,16.21,16.21s-7.26,16.21-16.21,16.21h-191.57c-92.39,0-142.12,44.55-156.49,140.21-6.43,42.79-5.7,93.48-4.99,142.51l.17,12.12c.31,23.14,3.21,62.08,10.35,95.69,10.17,47.9,22.55,57.02,26.19,58.7,10.39-1.32,49.2-18.45,96.57-47.95,50.99-31.75,88.85-63.4,101.46-84.8,8.96-18.88,19.5-110.26,24.07-163.85.76-8.92,8.61-15.53,17.53-14.78,8.92.76,15.54,8.61,14.78,17.53-2.07,24.34-13.15,147.23-27.58,176.01l-.45.84c-22.22,38.52-89.73,82.55-117.73,99.69-23.48,14.37-47.3,27.28-67.09,36.35-23.2,10.63-35.06,13.48-42.47,13.48Z" class="st0"/><path d="M1355.01,1032.68c-7.37,0-19.22-2.83-42.47-13.49-19.78-9.07-43.61-21.97-67.09-36.35-27.99-17.14-95.5-61.17-117.73-99.69l-.45-.84c-14.56-29.07-32.04-160.41-33.98-175.29-1.16-8.88,5.1-17.02,13.98-18.18,8.88-1.17,17.02,5.1,18.18,13.97,7.02,53.73,21.49,145.43,30.63,164.56,12.61,21.4,50.47,53.06,101.47,84.81,47.34,29.47,86.12,46.6,96.55,47.95,3.77-1.76,16.09-11,26.22-58.7,7.14-33.61,10.03-72.55,10.35-95.69l.17-12.12c.71-49.02,1.44-99.71-4.99-142.5-14.37-95.66-64.1-140.21-156.49-140.21h-191.57c-8.95,0-16.21-7.26-16.21-16.21s7.26-16.21,16.21-16.21h191.57c108.38,0,171.82,56.46,188.55,167.82,6.83,45.42,6.08,97.46,5.35,147.79l-.17,12.09c-.35,25.79-3.43,66.12-11.05,101.99-10.7,50.37-27.33,77.76-50.84,83.73-1.72.45-3.69.77-6.17.77Z" class="st0"/><path d="M611.07,1408.56c-78.08,0-108.71-27.91-120.64-51.57-15.31-30.34-6.34-65.18,8.47-84.71,37.72-49.74,159.79-65.22,281.59-76.81,22.87-2.18,48.8-4.65,54.02-6.47,3.36-1.2,7.35-2.47,11.97-3.94,33.64-10.69,96.27-30.58,106.02-84.21,7.47-41.1,4.41-78.78-10.57-130.04-2.51-8.6,2.42-17.6,11.01-20.11,8.6-2.51,17.6,2.42,20.11,11.01,16.29,55.75,19.68,99.09,11.35,144.94-13.24,72.83-90.82,97.47-128.11,109.31-4.32,1.37-8.05,2.56-10.86,3.56-8.49,3.04-26.08,4.81-61.87,8.22-73.54,7-226.56,21.57-258.83,64.13-7.16,9.44-14.95,31.5-5.36,50.51,11.29,22.37,45.24,34.35,95.45,33.72,72.12-.9,174.64-17.32,273.79-33.2,145.86-23.36,271.82-43.54,317.45-20.14,7.97,4.09,11.11,13.86,7.03,21.82-4.09,7.97-13.86,11.11-21.82,7.03-36.18-18.56-175.03,3.69-297.52,23.3-100.3,16.06-204.01,32.68-278.51,33.6-1.4.02-2.79.03-4.16.03Z" class="st0"/><path d="M1562.4,1408.56c-1.38,0-2.76,0-4.16-.03-85.37-1.06-209.51-37.33-329.55-72.4-63.1-18.44-122.7-35.85-171.21-46.35-62.05-13.43-85.69-10.81-94.6-6.25-7.97,4.08-17.74.94-21.82-7.03-4.09-7.97-.94-17.74,7.03-21.82,40.56-20.8,136.51,5.57,289.7,50.33,112.46,32.85,239.92,70.09,320.86,71.1,50.28.65,84.17-11.35,95.46-33.72,9.59-19.01,1.8-41.07-5.36-50.51-32.28-42.56-185.3-57.13-258.83-64.13-35.8-3.41-53.38-5.18-61.87-8.22-2.81-1-6.54-2.19-10.86-3.56-37.28-11.84-114.87-36.48-128.11-109.31-10.65-58.6-.88-107.76,17.07-163.55,2.74-8.52,11.87-13.2,20.4-10.47,8.52,2.74,13.21,11.88,10.47,20.4-16.46,51.14-25.49,95.85-16.04,147.82,9.75,53.64,72.38,73.53,106.02,84.21,4.62,1.47,8.61,2.74,11.98,3.94,5.22,1.82,31.14,4.29,54.01,6.47,121.8,11.6,243.88,27.08,281.59,76.82,14.81,19.53,23.78,54.36,8.47,84.71-11.93,23.65-42.58,51.57-120.65,51.57Z" class="st0"/><path d="M927.26,881.1c-7.13,0-13.66-4.74-15.63-11.95-15.2-55.74-1.1-201.5-.49-207.68.88-8.91,8.8-15.43,17.72-14.55,8.91.88,15.42,8.81,14.55,17.72-3.97,40.44-11.81,154.48-.49,195.98,2.36,8.64-2.74,17.55-11.38,19.91-1.43.39-2.86.58-4.27.58Z" class="st0"/><path d="M1278.63,881.1c-1.41,0-2.85-.19-4.27-.58-8.64-2.36-13.73-11.27-11.38-19.91,11.32-41.5,3.48-155.54-.49-195.98-.88-8.91,5.64-16.84,14.55-17.72,8.93-.87,16.85,5.64,17.72,14.55.61,6.18,14.71,151.95-.49,207.68-1.97,7.21-8.5,11.95-15.63,11.95Z" class="st0"/></g></g><g id="Warstwa_4"><g><g><path d="M1119.93,889.24c-38.48,0-77.83-15.23-107.97-41.78-15.12-13.32-27.07-28.66-35.53-45.58-9.01-18.03-13.57-36.99-13.57-56.36,0-.15,0-.31.01-.46.03-.4,2.52-40.09.13-84.37-3.1-57.36-12.76-96.24-27.94-112.43-5.13-5.47-10.74-8.13-17.14-8.13-3.82,0-6.98-2.99-7.19-6.81-.21-3.82,2.6-7.14,6.4-7.56.28-.03,2.83-.3,7.1-.3,14.98,0,53.08,3.43,83.26,35.23,18.54,19.54,30.83,46.13,36.77,79.48.9-3.78,1.88-7.61,2.94-11.47,15.02-54.82,38.56-89.28,69.96-102.43,1.78-.74,3.78-.74,5.56,0,31.4,13.15,54.94,47.62,69.96,102.44,1.05,3.85,2.03,7.67,2.93,11.44,5.94-33.34,18.22-59.94,36.76-79.47,30.18-31.8,68.29-35.23,83.27-35.23,4.27,0,6.83.27,7.1.3,3.8.42,6.61,3.74,6.4,7.56-.21,3.82-3.37,6.81-7.19,6.81-6.4,0-12.01,2.66-17.14,8.13-15.19,16.21-24.86,55.13-27.95,112.57-2.38,44.27.11,83.84.13,84.23,0,.15.01.31.01.46,0,19.37-4.57,38.33-13.57,56.36-8.46,16.92-20.41,32.26-35.53,45.58-30.14,26.55-69.5,41.78-107.97,41.78ZM977.26,745.74c.15,67.59,68.08,129.1,142.67,129.1s142.52-61.51,142.67-129.1c-.21-3.45-2.46-42.41-.13-85.69,3.07-57.08,12.46-96.38,27.92-116.98-14.68,3.69-32.31,11.45-47.58,27.54-27.55,29.03-39.8,76.41-36.42,140.83l.02.33c.19,3.97-2.86,7.34-6.83,7.55-3.98.2-7.35-2.85-7.56-6.81l-.02-.3c-.32-5.8-8.46-141-72.07-171.39-63.61,30.38-71.75,165.58-72.07,171.4v.29c-.23,3.97-3.61,7.02-7.57,6.81-3.97-.2-7.02-3.58-6.83-7.54l.02-.33s0-.01,0-.02c3.37-64.4-8.89-111.78-36.44-140.81-15.27-16.08-32.89-23.85-47.56-27.54,15.46,20.6,24.85,59.9,27.92,116.98,2.33,43.28.08,82.24-.13,85.69Z" class="st3"/><path d="M1005.51,576.44c-1.3,0-2.62-.35-3.8-1.09-3.38-2.1-4.41-6.55-2.31-9.92,12.39-19.9,27.33-33.61,44.4-40.76,1.78-.75,3.79-.75,5.56,0,15.24,6.38,28.82,18.03,40.38,34.64,2.27,3.27,1.47,7.76-1.8,10.03-3.26,2.27-7.76,1.47-10.03-1.8-9.23-13.27-19.76-22.78-31.33-28.33-13.13,6.29-24.88,17.66-34.96,33.84-1.37,2.19-3.72,3.4-6.12,3.4Z" class="st3"/><path d="M1161.51,576.44c-1.3,0-2.62-.35-3.8-1.09-3.38-2.1-4.41-6.55-2.3-9.92,12.4-19.9,27.34-33.61,44.4-40.76,1.78-.75,3.78-.75,5.56,0,15.24,6.38,28.82,18.03,40.38,34.64,2.27,3.27,1.47,7.76-1.8,10.03-3.27,2.27-7.76,1.47-10.03-1.8-9.23-13.27-19.76-22.78-31.33-28.33-13.13,6.29-24.88,17.66-34.96,33.84-1.37,2.19-3.72,3.4-6.12,3.4Z" class="st3"/></g><g><path d="M1146.64,555.76c-.1,0-.2,0-.3,0-3.98-.16-7.07-3.52-6.9-7.49l4.44-108.13c.16-3.97,3.53-7.06,7.49-6.9,3.98.16,7.07,3.52,6.9,7.49l-4.44,108.13c-.16,3.87-3.35,6.91-7.19,6.91Z" class="st3"/><path d="M1151.72,447.74c-7.2,0-13.89-3.23-18.36-8.87-3.88-4.9-5.63-11.02-4.91-17.23.72-6.21,3.82-11.77,8.72-15.65,4.12-3.26,9.28-5.06,14.53-5.06,7.2,0,13.89,3.23,18.36,8.87,3.88,4.9,5.63,11.02,4.9,17.23-.72,6.21-3.82,11.77-8.72,15.65-4.12,3.26-9.28,5.06-14.52,5.06ZM1151.7,415.33c-2.04,0-3.97.67-5.58,1.95-1.89,1.49-3.08,3.63-3.35,6.02-.28,2.39.39,4.74,1.89,6.63,1.72,2.17,4.29,3.41,7.07,3.41,2.04,0,3.97-.67,5.58-1.95,1.89-1.49,3.08-3.63,3.35-6.02.28-2.39-.39-4.74-1.89-6.63-1.72-2.17-4.29-3.41-7.07-3.41Z" class="st3"/></g><g><path d="M1178.77,551.04c-.15,0-.29,0-.44-.01-3.97-.24-7-3.65-6.76-7.62l4.26-71.11c.24-3.97,3.65-6.99,7.62-6.76,3.97.24,7,3.65,6.76,7.62l-4.26,71.11c-.23,3.82-3.4,6.77-7.18,6.77Z" class="st3"/><path d="M1185.21,480.17c-7.98,0-15.34-4-19.67-10.69-7.01-10.84-3.9-25.36,6.94-32.37,3.8-2.46,8.19-3.76,12.7-3.76,7.98,0,15.34,4,19.67,10.7,3.4,5.25,4.54,11.51,3.23,17.62-1.31,6.11-4.93,11.35-10.18,14.75-3.8,2.46-8.19,3.76-12.7,3.76ZM1185.18,447.76c-1.73,0-3.41.5-4.88,1.45-4.17,2.7-5.36,8.28-2.67,12.45,1.67,2.58,4.5,4.11,7.57,4.11,1.73,0,3.41-.5,4.87-1.44,2.02-1.31,3.41-3.32,3.91-5.67.5-2.35.06-4.76-1.24-6.78-1.67-2.58-4.5-4.11-7.57-4.11Z" class="st3"/></g><g><path d="M1066.47,548.63c-3.75,0-6.91-2.9-7.18-6.69l-4.87-68.7c-.28-3.97,2.71-7.41,6.68-7.69,3.98-.28,7.41,2.71,7.69,6.68l4.87,68.7c.28,3.97-2.71,7.41-6.68,7.69-.17.01-.35.02-.52.02Z" class="st3"/><path d="M1059.42,480.17h0c-4.51,0-8.9-1.3-12.7-3.76-5.25-3.4-8.86-8.63-10.17-14.75-1.31-6.11-.16-12.37,3.23-17.62,4.33-6.7,11.68-10.7,19.67-10.7,4.51,0,8.9,1.3,12.7,3.76,10.84,7.01,13.95,21.53,6.94,32.37-4.33,6.7-11.69,10.7-19.67,10.7ZM1059.45,447.76c-3.08,0-5.91,1.54-7.57,4.11-1.31,2.02-1.75,4.43-1.24,6.78.5,2.35,1.89,4.37,3.91,5.67,1.46.95,3.15,1.45,4.87,1.45,3.08,0,5.91-1.54,7.57-4.11,2.7-4.17,1.5-9.75-2.67-12.45-1.46-.95-3.15-1.45-4.88-1.45Z" class="st3"/></g><g><path d="M1099.26,552.74c-3.78,0-6.96-2.95-7.18-6.78l-6.25-105.11c-.24-3.97,2.79-7.38,6.76-7.62,3.99-.24,7.38,2.79,7.62,6.76l6.25,105.11c.24,3.97-2.79,7.38-6.76,7.62-.15,0-.29.01-.43.01Z" class="st3"/><path d="M1092.38,447.74h0c-5.25,0-10.41-1.8-14.53-5.06-10.12-8.02-11.83-22.77-3.81-32.89,4.47-5.64,11.16-8.87,18.36-8.87,5.25,0,10.41,1.8,14.53,5.06,4.9,3.88,8,9.44,8.72,15.65.72,6.21-1.02,12.33-4.9,17.23-4.47,5.64-11.16,8.87-18.36,8.87ZM1092.4,415.33c-2.77,0-5.35,1.24-7.07,3.41-3.08,3.89-2.43,9.56,1.46,12.65,1.61,1.27,3.54,1.95,5.58,1.95,2.77,0,5.35-1.24,7.07-3.41,1.49-1.88,2.16-4.24,1.89-6.63-.28-2.39-1.47-4.53-3.35-6.02-1.61-1.28-3.54-1.95-5.58-1.95Z" class="st3"/></g><g><path d="M1122.32,540.87h-.04c-3.98-.02-7.19-3.26-7.17-7.24l.63-132.16c.02-3.97,3.24-7.17,7.2-7.17h.04c3.98.02,7.19,3.26,7.17,7.24l-.63,132.16c-.02,3.97-3.24,7.17-7.2,7.17Z" class="st3"/><path d="M1122.31,408.82h0c-5.25,0-10.41-1.8-14.53-5.06-4.9-3.88-8-9.44-8.72-15.65-.72-6.21,1.02-12.33,4.91-17.23,4.47-5.64,11.16-8.87,18.36-8.87,5.25,0,10.41,1.8,14.53,5.06,4.9,3.88,8,9.44,8.72,15.65.72,6.21-1.02,12.33-4.9,17.23-4.47,5.64-11.16,8.87-18.36,8.87ZM1122.33,376.41c-2.77,0-5.35,1.24-7.06,3.41-1.49,1.89-2.16,4.24-1.89,6.63.28,2.39,1.47,4.53,3.35,6.02,1.61,1.27,3.54,1.95,5.58,1.95,2.77,0,5.35-1.24,7.07-3.41,1.49-1.88,2.16-4.24,1.89-6.63-.28-2.39-1.47-4.53-3.35-6.02-1.61-1.28-3.54-1.95-5.58-1.95Z" class="st3"/></g><path d="M1119.93,1235.27c-3.98,0-7.2-8.88-7.2-19.83v-320.77c0-10.95,3.23-19.83,7.2-19.83s7.2,8.88,7.2,19.83v320.77c0,10.95-3.23,19.83-7.2,19.83Z" class="st3"/><path d="M1119.94,947.51c-.23,0-.47-.01-.71-.03-5.88-.57-13.07-.83-23.31-.83-4.6,0-9.38.05-14.45.1-5.47.05-11.13.11-16.99.11h0c-28.22,0-61.45-1.3-93.98-10.91-37.64-11.12-67.26-31.03-90.56-60.87-19.26-24.35-33.29-50.8-41.69-78.57-6.73-22.25-9.86-45.38-9.32-68.74.93-39.86,12.18-66.44,12.65-67.55,1.18-2.73,3.91-4.46,6.89-4.35,2.97.11,5.57,2.04,6.54,4.86.26.76,27.07,77.4,95.12,172.64,34.66,42.43,79.16,67.29,110.41,80.67,32.74,14.02,58.2,18.75,60.43,19.14,3.5.49,6.18,3.5,6.18,7.13,0,3.86-3.04,7.01-6.85,7.2-.12,0-.24,0-.36,0ZM848.97,684.8c-2.66,10.93-5.3,26.06-5.66,43.93-1.01,49.7,15.12,95.94,47.94,137.45,45.48,58.25,110.13,66.27,173.22,66.27h0c1.04,0,2.08,0,3.11,0-3.97-1.52-8.09-3.18-12.33-4.99-32.9-14.04-79.81-40.22-116.45-85.16-.1-.12-.19-.24-.28-.36-49.62-69.41-77.36-128.1-89.57-157.13Z" class="st3"/><path d="M1119.93,947.51c-3.57,0-6.66-2.65-7.13-6.26-.51-3.85,2.12-7.41,5.95-8.05h0c.26-.04,26.47-4.56,60.59-19.17,31.24-13.38,75.74-38.24,110.41-80.67,68.05-95.24,94.86-171.88,95.12-172.64.97-2.81,3.57-4.74,6.54-4.85,2.96-.1,5.71,1.62,6.89,4.35.48,1.11,11.73,27.69,12.65,67.55.54,23.36-2.59,46.49-9.32,68.74-8.4,27.77-22.43,54.22-41.71,78.61-23.28,29.81-52.9,49.72-90.54,60.84-32.54,9.61-65.77,10.91-93.98,10.91-5.87,0-11.52-.06-17-.11-5.07-.05-9.85-.1-14.45-.1-10.23,0-17.42.26-23.31.83-.24.02-.47.03-.71.03ZM1172.27,932.44c1.03,0,2.07,0,3.12,0,63.09,0,127.74-8.02,173.19-66.24,41.09-51.97,48.76-103.79,47.96-138.11-.41-17.67-3.01-32.55-5.63-43.33-12.2,29.02-39.94,87.72-89.58,157.16-.09.12-.18.24-.28.36-36.64,44.95-83.55,71.12-116.45,85.16-4.25,1.81-8.37,3.47-12.33,4.99Z" class="st3"/></g><g><path d="M1143.22,1263.01c-18.82-18.82-19.55-20.37-20.67-22.72-12.12-25.59,18.95-53.32,24.7-58.14l191.71-192.82c.22-.22.44-.43.68-.63,2.46-2.14,60.58-52.49,95.16-69.31,21.32-10.37,43.5-20.35,65.93-29.66,75.66-31.41,106.5-51.43,122.23-79.34,4.64-8.24,21.44-35.36,42.59-38.26,7.75-1.06,15.04,1.38,20.54,6.88,9.79,9.79,13.56,28.54,11.85,58.98.12,8.55-1.79,78.37-91.83,126.67-13.77,7.65-30.96,15.36-47.58,22.81-15.53,6.96-31.59,14.16-43.79,20.88-11.2,6.17-15.96,10.2-17.95,12.34,1.87,1.26,5.57,3.26,12.59,5.58,10.28.24,77.27-.52,130.41-57.9,73.62-79.51,76.44-149.5,78.93-211.25.79-19.63,1.54-38.17,4.5-55.93,6.43-38.59,17.2-103.16,52.72-119.95,12.37-6.04,27.1-3.19,37.57,7.29,7.32,7.32,15.94,21.47,15.55,47.36.29,8.86.65,17.68,1.03,27.02,2.2,54.36,4.7,115.97-6.12,194.09-6.55,47.27-18.48,109.59-52.97,172.5-40.82,74.46-104.45,132.03-189.11,171.11-.12.06-.25.11-.38.17-22.6,9.56-53.96,13.37-87.15,17.4-44.75,5.44-95.47,11.6-117.24,33.38-18.02,18.02-29.03,52.87-37.87,80.99-7.5,29.43-22.37,49.21-40.84,54.31-10.05,2.77-25.69,2.42-43.12-15.01-.27-.27-.55-.55-.82-.83-4.04-3.87-76.71-73.47-111.23-108ZM1145.33,1228.57c1.4,1.6,5.29,5.78,15.92,16.41,35.14,35.14,110.25,107.05,111,107.77.12.11.23.23.35.34,7.29,7.56,13.73,10.64,19.02,9.18,8.9-2.46,18.14-17.06,23-36.33.06-.24.13-.47.2-.71,9.69-30.83,21.76-69.2,44.27-91.71,28-28,80.97-34.43,132.2-40.66,31.27-3.8,60.8-7.39,80.11-15.5,174.73-80.74,213.42-223.5,227.32-323.87,10.51-75.87,8.06-136.27,5.9-189.56-.38-9.5-.75-18.47-1.05-27.53,0-.22,0-.43,0-.65.34-18.73-5.54-26.67-8.08-29.21-1.63-1.63-4.9-4.12-8.38-2.39-.08.04-.15.07-.23.11-23.49,11.03-33.63,71.87-38.51,101.12-2.7,16.19-3.42,33.96-4.17,52.77-2.53,62.88-5.69,141.13-85.7,227.54-66.02,71.3-148.8,66.21-152.29,65.96-.99-.07-1.97-.26-2.92-.56-12.41-3.91-20.68-8.23-26.04-13.58-5.7-5.7-8.1-12.82-6.77-20.05,3.52-19.15,31.79-32.71,77.62-53.25,16.16-7.24,32.87-14.73,45.7-21.87.06-.03.12-.06.17-.09,33.43-17.92,56.78-40.86,69.42-68.2,9.38-20.3,9.06-35.66,9.05-35.82-.02-.43-.01-.77.01-1.19,1.68-29.01-2.71-37.64-4.04-39.55-4.07,1.04-14.34,9.61-23.24,25.41-21.31,37.83-63.77,60.95-134.67,90.38-21.96,9.12-43.68,18.88-64.55,29.04-30.31,14.75-84.44,61.18-89.25,65.34l-191.8,192.91c-.3.31-.62.6-.96.87-9.99,8.25-19.82,21.43-18.62,27.15Z" class="st3"/><path d="M1096.33,1262.99c-34.52,34.52-107.19,104.13-111.23,108-.27.28-.55.56-.82.83-17.43,17.43-33.07,17.79-43.12,15.02-18.47-5.1-33.35-24.88-40.84-54.31-8.84-28.11-19.85-62.97-37.87-80.99-21.78-21.78-72.5-27.94-117.24-33.38-33.19-4.03-64.55-7.84-87.15-17.41-.13-.05-.25-.11-.38-.17-84.67-39.08-148.29-96.65-189.11-171.11-34.48-62.9-46.42-125.23-52.97-172.5-10.82-78.12-8.32-139.73-6.12-194.08.38-9.34.74-18.17,1.03-27.03-.39-25.89,8.23-40.04,15.55-47.36,10.48-10.48,25.21-13.33,37.57-7.29,35.52,16.79,46.29,81.36,52.72,119.95,2.96,17.76,3.71,36.3,4.5,55.93,2.49,61.75,5.31,131.74,78.93,211.24,53.43,57.7,120.05,58.2,130.39,57.91,7.04-2.32,10.74-4.33,12.61-5.59-1.99-2.14-6.74-6.17-17.94-12.34-12.21-6.72-28.26-13.92-43.79-20.88-16.62-7.45-33.8-15.15-47.58-22.8-90.05-48.31-91.95-118.14-91.83-126.68-1.71-30.44,2.06-49.19,11.85-58.98,5.5-5.5,12.79-7.94,20.53-6.88,21.15,2.9,37.94,30.01,42.59,38.26,15.72,27.92,46.57,47.94,122.23,79.34,22.43,9.31,44.61,19.29,65.93,29.66,34.58,16.82,92.7,67.18,95.16,69.31.23.2.46.41.68.63l191.71,192.82c5.74,4.82,36.81,32.55,24.7,58.14-1.11,2.35-1.85,3.9-20.67,22.72ZM967.1,1352.93c.07-.07.13-.13.2-.2.76-.72,75.86-72.63,111-107.77,10.63-10.63,14.51-14.8,15.92-16.41,1.18-5.71-8.8-19.11-18.61-27.16-.33-.27-.65-.56-.96-.87l-191.8-192.91c-4.82-4.16-58.96-50.6-89.25-65.34-20.87-10.15-42.58-19.92-64.55-29.04-70.9-29.43-113.36-52.55-134.67-90.38-8.9-15.8-19.16-24.37-23.23-25.41-1.36,1.97-5.72,10.65-4.04,39.55.03.43.03.86,0,1.28,0,.06-.33,15.43,9.05,35.73,12.64,27.34,35.99,50.29,69.42,68.2.06.03.12.06.17.09,12.83,7.13,29.54,14.62,45.7,21.87,45.83,20.54,74.1,34.1,77.62,53.25,1.33,7.23-1.07,14.35-6.77,20.05-5.35,5.36-13.63,9.67-26.04,13.58-.95.3-1.92.48-2.92.56-3.49.25-86.27,5.34-152.29-65.96-80.01-86.41-83.17-164.66-85.7-227.54-.76-18.81-1.47-36.58-4.17-52.77-4.87-29.24-15.01-90.09-38.51-101.11-.08-.04-.15-.07-.23-.11-3.49-1.72-6.75.76-8.38,2.39-2.54,2.54-8.42,10.48-8.08,29.21,0,.22,0,.43,0,.65-.3,9.06-.66,18.04-1.05,27.54-2.16,53.29-4.61,113.69,5.9,189.55,13.9,100.37,52.59,243.13,227.32,323.87,19.31,8.11,48.84,11.7,80.11,15.5,51.23,6.23,104.2,12.66,132.19,40.66,22.51,22.51,34.58,60.88,44.27,91.71.07.23.14.47.2.71,4.86,19.28,14.1,33.88,23,36.33,5.29,1.46,11.75-1.63,19.02-9.18.05-.05.1-.1.15-.15Z" class="st3"/></g><path d="M1566.17,701.49V170.66" class="st2"/><line x1="1516.99" x2="1565" y1="286.9" y2="166" class="st2"/><line x1="1616.02" x2="1565" y1="286.9" y2="166" class="st2"/></g><g id="Warstwa_5" class="st5"><g><path d="M498.43,1117.25c3.25-30.25,21.87-66.23,41.69-88.97,10.04-11.52,31.02-36.58,46.29-20.97,17.92,18.3-20.66,43.76-31.11,59.28-68.75,102.08,52.22,245.2,159.07,226.14,45.76-8.17,111.74-74.59,141.37-110.69,31.92-38.9,40.21-98.13,11.53-141.05-4.29,6.37-24.74,21.41-26.25,27.06-1.51,5.61,3.68,15.75,4.26,22.63,1.8,21.16-2.71,43.63-15.15,61.11-11.87,16.68-67.21,70.87-84.23,84.58-58.98,47.5-115.48,2.53-153.84-45.09-25.72-31.94-26.43-75.04-1.07-107.5,13.99-17.9,66.57-70.96,84.35-84.46,18.94-14.38,41.37-18.21,64.76-16.21,6.8.58,14.41,5.9,20.28,4.3,5.7-1.55,20.66-21.94,27.06-26.26-44.56-28.45-95.22-20.59-137.15,8.49-10.65,7.38-18.1,23.65-33.88,12.26-24.3-17.55,13.97-42.31,27.88-50.63,52.75-31.53,118.15-30.02,169.82,2.64l48.63-47.88c-34.95-59.31-33.84-128.77,7.03-184.84,15.44-21.17,46.74-58.8,75.82-43.84,4.11,2.11,41.42,39.96,43.56,44.31,20.54,41.61-53.06,58.59-42.1,103.39,51.27-21.82,98.03,24.67,76.31,76.31,46.2,11.23,65.08-70.49,108.74-38.2,5.22,3.86,39.26,38.6,40.53,42.72,8.29,26.87-13.05,45.63-31.31,61.44-58.53,50.68-131.83,57.21-198.95,18.36l-47.88,48.63c40.82,67.17,31.58,140.67-19.09,198.97-39.2,45.11-102.55,110.12-164.25,116.72h-39.31c-17.46-4.66-35.36-8.44-51.75-16.47-25.41-12.45-79.99-65.38-95.81-89.19-13.67-20.57-20.34-44.02-25.88-67.78.97-12.64-1.33-26.93,0-39.31ZM929.71,689.48c-51.19,40.39-76.7,110.06-39.31,168.73,4.32-6.4,24.7-21.36,26.26-27.06,1.7-6.26-3.5-12.18-4.1-18.17-4.48-44.87,12.5-66.41,43.58-94.94l-26.43-28.55ZM967.2,835.61c-3.42.78-6.17,2.88-8.63,5.25l-187.27,187.36c-15.07,19.35,9.39,44.02,28.91,28.91l188.47-188.47c12.34-17.64.51-38.04-21.48-33.05ZM1110.4,872.29c-28.29,30.86-50.55,48.02-94.94,43.58-6-.6-11.91-5.8-18.17-4.1-5.7,1.55-20.66,21.94-27.06,26.26,58.66,37.4,128.36,11.86,168.73-39.31l-28.55-26.43ZM734.31,1017.81c-14.36-1.6-28.93,3.07-40.47,11.56-14.99,11.02-59.42,56.43-71.72,71.66-20.48,25.36-18.64,48.12,1.25,72.8,26.99,33.49,62.88,65.68,104.02,32.47,14.2-11.46,72.38-69.71,78.34-83.54,3.88-9,5.63-18.84,4.88-28.65-51.94,13.13-89.44-24.36-76.3-76.3Z"/><path d="M1508.99,146c23.76,5.54,47.21,12.2,67.78,25.88,27.51,18.29,73.67,64.97,88.42,94.27,8.46,16.8,12.5,35.26,17.24,53.29-.84,11.97,1.16,25.24,0,37-1.24,12.59-7.76,34.23-12.76,46.21-6.67,16-33.21,66.55-54.35,42.87-13.92-15.58,11.4-35.15,18.95-50.52,36.44-74.16-6.94-136.59-62.82-183.12-39.54-32.93-93.21-40.44-139.52-16.9-24.37,12.39-105.26,92.78-119.06,116.81-21.52,37.45-23.71,86.67.71,123.23,4.29-6.37,24.74-21.41,26.25-27.06,1.51-5.61-3.68-15.76-4.26-22.63-1.77-20.73,2.38-42.29,14.23-59.72,9.57-14.07,74.33-78.77,88.65-89.41,57.63-42.79,115.61,3.94,151.41,49.77,21.52,27.55,24.52,62.82,8.19,93.64-8.17,15.42-78.19,86.65-93.86,98.08-17.82,13-39.35,17.01-61.1,15.17-6.88-.58-17.01-5.77-22.63-4.26-5.65,1.52-20.7,21.96-27.06,26.25,42.42,28.24,100.96,20.73,139.81-10.46,13.65-10.96,32.17-42.47,52.05-33.43,29.88,13.58-22.62,55.58-34.86,64.5-57.04,41.58-124.23,40.95-184.84,7.06l-47.97,48.61c40.88,64.55,31.56,141.11-17.86,197.78-15.15,17.37-32.48,36.96-57.74,32.22-6.94-1.3-44.35-37.07-48.58-43.91-21.44-34.7,22.37-50.39,34.69-76.14,5.31-11.1,6.89-20.02,5.68-32.45-47.8,18.26-92.22-26.48-73.99-73.99-46.08-12.74-63.93,62.72-105.7,42.1-4.35-2.14-42.19-39.45-44.31-43.56-13.57-26.39,12.86-50.06,30.99-65.55,12.16-10.39,46.66-40.11,58.59-17.11,10.96,21.14-15.82,27.68-28.54,37.91-10.12,8.14-18.99,20.19-28.91,28.86,7.46,5.01,18.71,22.12,25.41,25.58,2.22,1.14,2.36,1.14,4.59,0,6.34-3.26,19.92-21.59,27.97-27.69,19.18-14.53,41.95-17.41,65.52-15.04,5,.5,9.87,4.23,14.32,4.43,8.79.4,23.26-21.03,30.91-26.59-14.41-16.86-49.41-12.26-63.29-19.91-13.37-7.37-9.17-29.44,4.42-32.05,24.3-4.68,64.94,11.88,85.54,24.83,6.3-6.85,49.43-46.05,48.74-50.43-40.38-67.01-31-139.69,19.4-197.68,39.17-45.08,102.62-110.11,164.25-116.72h39.31ZM1446.55,458.16c7.19.5,13.35.18,20.38-1.56,17.69-4.38,78.43-65.08,91.8-81.64,20.48-25.36,18.64-48.12-1.25-72.8-26.99-33.49-62.88-65.68-104.02-32.47-15.37,12.4-60.45,56.56-71.66,71.72-8.4,11.37-12.61,26.42-11.54,40.46,50.23-25.69,101.74,26.05,76.29,76.29ZM1290.46,617.79c-4.32,6.4-24.7,21.36-26.26,27.06-1.7,6.26,3.5,12.18,4.1,18.17,4.43,44.39-12.72,66.65-43.58,94.94l26.43,28.55c50.98-40.19,76.97-110.32,39.31-168.73Z"/><path d="M1254.01,1036.88c14.68-2.42,23.27,1.44,32.93,12.21l72.95,118.97c13.3,51.33-78.43,64.73-113.17,59.99-22.22-3.03-32.04-18.96-31.41-40.23.94-31.75,6.25-91.24,12.14-122.01,2.88-15.02,10.48-26.29,26.55-28.94ZM1323.9,1179.58l-62.32-103.94-9.29,117.94c25.23,1.85,48.93-3.48,71.61-13.99Z"/><path d="M641.17,467.98c12.53-2.61,17.92.22,28.42,5.2,21.25,10.07,93.44,53.66,109.75,68.31,23.5,21.1,13.97,53.64-16.73,59.48-30.88,5.88-90.18,11.2-122.01,12.14-41.96,1.24-43.37-35.22-40.4-68.17,1.93-21.47,16.94-71.97,40.95-76.96ZM752.78,564.59l-103.94-60.06c-10.92,22.81-15.81,46.17-13.99,71.61l117.93-11.54Z"/><path d="M909.53,241.45c22.8-2.35,45.28,2.04,48.88,28.47,5.7,41.91-3.7,95.24.06,138.4-9.92,30.46-39.02,36.68-61.16,12.89-16.85-18.11-63.13-77.95-74.73-98.71-26.56-47.55,50.5-77.29,86.95-81.05ZM923.93,275.5c-26.54,1.22-50.55,11.25-71.72,26.63l71.72,93.62v-120.25Z"/><path d="M1418.17,870.34c43.87,2.47,95.24-5.15,138.23-.54,57.88,6.21,21.52,100.34-2.29,127.22-12.86,14.51-24.81,19.93-43.72,11.29-15.6-7.13-88.52-63.56-103.17-77.2-23.16-21.54-18.08-49.32,10.96-60.78ZM1552.93,904.5h-120.25l93.62,71.72c15.69-21.18,24.69-45.36,26.63-71.72Z"/><path d="M694.45,678.29c17.13-2.26,26.12,19.75,14.3,30.69-3.14,2.91-54.11,25.16-59.4,26.16-22,4.16-31.91-19.38-16.75-30.62,3.75-2.78,57.59-25.67,61.86-26.23Z"/><path d="M1536.2,738.41c17.13-2.26,26.12,19.75,14.3,30.69-3.14,2.91-54.11,25.16-59.4,26.16-22,4.16-31.91-19.38-16.75-30.62,3.75-2.78,57.59-25.67,61.86-26.23Z"/><path d="M1066.64,273.69c13.07-3.01,25.19,4.67,23.37,18.53-.73,5.57-22.96,56.43-26.72,61.36-12.33,16.14-34.17,5-30.13-16.26,1.11-5.84,20.88-51.66,24.4-56.54,2.8-3.88,3.93-5.91,9.08-7.1Z"/><path d="M1126.76,1115.44c13.07-3.01,25.19,4.67,23.37,18.53-.7,5.31-23.13,56.83-26.69,61.4-12.02,15.44-34.29,5.39-30.16-16.3,1.11-5.84,20.88-51.66,24.4-56.54,2.8-3.88,3.93-5.91,9.08-7.1Z"/><path d="M1428.75,1076.29c4.32-5.36,13.84-6.33,20.25-4.26,5.46,1.77,41.74,35.66,44.03,41.68,5.99,15.76-9.37,26.75-25.07,20.27-2.41-.99-36.16-30.02-38.62-33.06-4.82-5.97-5.34-18.75-.59-24.65Z"/><path d="M708.06,334c4.9-.27,8.71,2.3,12.47,5.01,4.19,3.03,32.31,33.58,34.28,37.38,9.63,18.58-8.64,32.87-26.05,23.75-7.94-12.68-35.23-32.95-36.22-47.19-.7-10.13,5.02-18.36,15.52-18.94Z"/></g><path d="M974.22,830.6c-3.89.37-8.35,2.79-11.36,5.3l-194.73,192.81c-12.37,19.73,9.97,41.73,29.83,29.53l194.79-192.75c12.7-14.38.35-36.66-18.53-34.88Z" class="st4"/><path d="M1389.55,409.72c-3.79.36-8.13,2.74-11.06,5.22l-189.59,189.64c-12.04,19.41,9.71,41.05,29.04,29.04l189.64-189.59c12.36-14.14.34-36.06-18.04-34.31Z" class="st4"/></g></svg>