<svg xmlns="http://www.w3.org/2000/svg" id="Layer_1" viewBox="0 0 1368.19 2000"><defs><style>      .st0 {        fill: #f7941d;      }      .st1 {        fill: #fff;      }      .st2 {        fill: #241f20;      }      .st3 {        fill: #804896;      }      .st4 {        fill: #231f20;      }      .st5 {        fill: #1d1d1b;      }    </style></defs><path class="st4" d="M664.47,1905.95c-42.02.25-83.97-2.69-125.97-2.68-10.51.36-21.01.48-31.52.65-8.01.96-37.62,3.84-24.7-11.06,4.42-19.15,10.55-32.09-5.63-48.53-21-17.33-57.11-21.1-64.89-51.32-6.49-41.35,46.3-62.33,45.16-102.06-1.23-16.51-6.73-33.2-20.16-43.74.21.2.42.39.62.59-10.86-10.7-24.3-18.06-38.18-24.1.13.06.27.12.41.18-21.94-10.49-47.72-17.36-63.53-36.98-17.11-22.26-10.89-56.8,11.13-73.48,36.38-29.9,83.82-41.08,128.07-54.25,69.76-19.43,141.27-33.85,213.65-38.34-.03,0-.05,0-.08,0,1.85-.07,3.69-.25,5.54-.26-.01,0-.03,0-.04,0,36.99-2.28,73.79,1.21,109.39,11.71-.21-.05-.43-.11-.64-.16,20.24,6.01,41,11.56,60.11,20.64,33.3,19.09,60.81,52.87,61.1,92.65-.17,29.4-18.99,53.74-25.22,81.73-13.28,63.08,88.08,54.6,100.07,106.86,6.39,31.25-10.6,61.54-20.73,90.29-6.57,15.61-13.45,31.21-17.34,47.76-.85,5.01-1.61,11.64-7.54,12.97-81.87,12.37-164.89,15.78-247.53,19.81.06,0,.11,0,.17,0-13.89.61-27.8,1.23-41.72,1.13ZM557.19,1890.99c47.16,1.92,94.41,4.33,141.63,2.45-.03,0-.06,0-.09,0,.2,0,.4-.02.59-.03-.18,0-.36.02-.53.03,1.29-.06,2.58-.12,3.87-.18-.27.01-.53.02-.8.04,22.63-.98,45.27-1.81,67.87-3.37-.01,0-.03,0-.04,0,59.5-3.83,119.46-6.05,178.19-16.89,4.38-25.19,17.05-47.82,25.65-71.65-.12.32-.23.65-.35.97,37.33-90.8-6.46-79.07-67.53-122.01-23.53-15.19-25.24-45.26-15.09-69.15,6.05-19.3,18.05-36.45,20.95-56.73,5.1-37.25-20.74-70.83-50.6-90.11-20.14-11.6-43.42-16.93-65.5-23.76-33.37-9.7-67.89-12.09-102.47-10.18.22,0,.44-.02.66-.03-81.3,4.4-161.46,21.45-239.46,44.27-43.14,14.7-147.37,40.94-108.63,104.45-.05-.07-.1-.14-.16-.21,18.27,20.22,47.06,25.35,70.39,37.79,21.41,10.98,43.86,27.5,49.65,52.12,16.49,52.51-28.53,67.77-41.84,109.03-6.11,31.01,35.17,37.76,54.53,51.24,22.09,13.65,24.64,41.29,13.88,63.16,21.68-.27,43.47-1.8,65.22-1.26Z"></path><path class="st4" d="M485.55,1904.15c-44.76.36-87.75-14.94-132.52-14.84-30.03-.98-63.66,6.78-90.93-8.94-9.94-6.57.76-18.13,2.12-26.79,21.25-55.43,34.38-113.38,47.76-171.09,5.56-25.73,10.69-51.61,13.72-77.78,1.8-18.02.53-37.37,3.52-54.74,7.86-3.49,4.36,22.06,5.19,26.41,2.01,44.73-8.07,88.82-17.74,132.22-11.06,48.89-23.55,97.56-41.8,144.32.02-.05.04-.11.06-.16-.09.24-.18.49-.27.73.02-.05.04-.1.05-.15-1.67,4.6-3.37,9.19-5.05,13.79.09-.24.17-.47.26-.71-.47,1.31-.99,2.62-1.41,3.95,27.79,17.62,80.56,2.89,114.22,8.71,0,0,0,0-.01,0,.26.03.52.05.78.08-.09,0-.17-.02-.26-.03.17.02.33.03.5.05-.08,0-.16-.02-.23-.02.26.03.52.05.78.08-.03,0-.07,0-.1-.01,23.37,2.51,46.39,7.39,69.63,10.72,9.45,2.34,32.91-2.63,38.33,3.29,2.87,4.57-1.35,11.09-6.6,10.9Z"></path><path class="st4" d="M940.45,1881.47c.52-12.95,26.14-8.26,35.14-8.79,12.01.77,24.01-.93,36.01-1.36-11.1-38.41-17.42-77.71-20.87-117.46-.89-5.9-1.26-11.9-2.88-17.67-1.24-3.4-2.68-7.92,1.28-10.08,2.85-1.85,7.11.87,5.49,4.27,8.15,22.73,8.25,47.41,12.35,71.02,2.33,10.13,5.52,20.06,7.24,30.33,2.38,12.36,5.88,24.46,8.91,36.67,5.61,13.25-10.65,14.81-19.95,14.5.04,0,.08,0,.12,0-14.56,1.48-29.07.97-43.65,1.14-6.11-1.6-16.95,6.08-19.2-2.56Z"></path><path class="st4" d="M935.95,1690.03c-7.43-5.57-5.89-31.56-7.85-41.32-3.7-26.5-6-53.13-8.33-79.77-2.02-15.69-6.74-30.84-9.06-46.48.03.15.06.3.09.46-.4-5.84-7.35-22.58.62-24.49,1.11.2,1.75,1.21,1.71,2.27,0-.02,0-.04,0-.05,2.24,19.91,10.14,38.95,14.01,58.64,4.71,26.69,5.52,53.93,10.58,80.62,1.62,11.97,2.24,24.07,4.3,35.98,2.03,5.87,3.15,15.67-6.08,14.15Z"></path><path class="st4" d="M908.14,1645.13c.25-6.35-3.92-19.51-.65-24.05,3.45-1.27,1.73,3.75,2.57,5.55-.02-.09-.03-.17-.05-.25.36,4.81,5.85,17.36,1.28,20.18-1.22.5-2.85-.02-3.15-1.44Z"></path><path class="st4" d="M915.9,1618.73c.02-3.02-3.17-10.9.44-12,3.03.4,2.36,7.33,4.03,9.82,1.26,2.74-3.38,5.43-4.47,2.19Z"></path><path class="st4" d="M920.81,1655.34c.36-3.47-3.47-11.15,2.1-11.44,2.84,1.25,1.67,6.97,2.97,9.75.91,3.16-4.35,5.46-5.06,1.7Z"></path><path class="st4" d="M989.77,1818.53c-1.5-4.65-2.3-9.74-1.92-14.61.36-1.58,2.74-2.47,3.69-.93.61,2.68.52,5.69,1.6,8.4.55,2.61,3.17,6.23.02,8.08-1.13.64-2.89.44-3.39-.94Z"></path><path class="st4" d="M970.56,1843.35c-.95-4.89-.34-9.99-.32-14.94.29-3.14,5.43-3.65,5.19-.04,0-.06.01-.13.02-.19-1.08,5.12,4.33,13.93-.91,16.98-1.56.65-3.51-.03-3.97-1.81Z"></path><path class="st4" d="M989.21,1852.14c-.07-3.15-.25-6.34.29-9.46.49-3.92,6.73-3.35,5.22.8,0,0,0-.02,0-.02-.89,3.51,2.51,9.26-2.23,10.87-1.47.39-3.21-.54-3.29-2.19Z"></path><path class="st4" d="M348.01,1644.47c-6.31-.85-2.42-8.55-1.95-12.51,1.79-8.41,3.09-16.91,3.85-25.47,0,.09-.02.18-.02.27.01-.17.03-.34.04-.5,0,.07-.01.15-.02.22.22-3.44.94-23.33,7.12-15.19,0,0,0,0,0,0-.6,8.58,1.1,53.13-9.02,53.18Z"></path><path class="st4" d="M337.33,1692.45c-5.5-.75-2.28-7.57-1.4-10.95,2.63-6.77,2.95-15.14,7.54-20.87,1.56-1.46,4.36-.42,4.23,1.83-.45,1.96-1.59,3.7-1.79,5.8-2.55,5.74-1.54,23.72-8.58,24.19Z"></path><path class="st4" d="M379.65,1638.29c-5.52-.81-1.84-7.32-1.11-10.64,1.74-5.39,2.63-11.17,5.11-16.27,1.46-3.16,6.44-1.33,3.85,1.78-2.67,5.53-1.33,25.67-7.86,25.14Z"></path><path class="st4" d="M368.73,1664.25c-5.11-.53-2.93-6.26-1.59-9.33,1.95-3.55,1.67-11.16,6.93-11.13,4.26,1.28.87,6.35.56,9.24-1.09,3.94-.27,11-5.89,11.21Z"></path><path class="st4" d="M351.78,1729.69c-5.82-1.94-.65-9.06.18-12.93,3.14-9.41,6.24-18.83,9.7-28.13,1.12-6.97,10.49-4.85,5.24.89-3.04,6.56-7.75,42.8-15.12,40.17Z"></path><path class="st4" d="M324.53,1776.6c-5.62-1.97-.19-8.75.55-12.49,0,0,0,.01,0,.02,2.94-4.88,2.32-15.67,8.66-16.92,2.07.12,2.58,2.79,1.3,4.15-2.52,6.04-2.71,25.04-10.51,25.24Z"></path><path class="st4" d="M334.58,1723.55c-1.59-.28-2.48-2.04-1.96-3.54,1.85-3.13,1.74-9.93,6.31-9.97,1.71.29,2.34,2.31,1.59,3.74-1.56,3.2-1.12,9.98-5.94,9.77Z"></path><path class="st4" d="M425.49,1664.99c-5.41-.75-1.7-6.9-.92-10.05,1.47-2.68,4.3-23.65,8.73-17.81,0,0,0,0,0-.01-1.31,8.08-2.92,16.15-3.76,24.32-.22,1.93-2.11,3.6-4.05,3.55Z"></path><path class="st4" d="M399.61,1722.74c-6.91-2.25,2.4-14.73,2.44-19.94,2.14-4.3.53-14.84,7.27-14.18,4.27,1.32-1.49,13.97-1.48,17.95-2.29,5.03-.94,15.98-8.22,16.16Z"></path><path class="st4" d="M393.23,1699.4c-6.16-2.14-.45-9.84.04-14.11,1.84-6.32,3.13-12.77,4.63-19.17,2.65-10.97,5.42-21.92,7.7-32.98.8-2.4.61-8.18,4.32-7.32.64.35.84,1.03.74,1.69,0,0,.01,0,.02-.01-1.85,8.96-7.65,75.5-17.45,71.9Z"></path><path class="st4" d="M370.63,1775.1c-7.74-1.9,1.22-12.64,1.77-17.45-.06.15-.11.3-.17.46,3.06-4.61,6.24-29.35,12.28-26.62,3.18.25-4.43,19.21-4.73,22.81-2.7,5.28-2.59,20.2-9.15,20.81Z"></path><path class="st4" d="M345.5,1841.85c-5.77-1.74-.97-8.2.44-11.62,3.41-5.94,4.43-13.61,8.86-18.77,6.9-1.8.11,11.02-.16,14.09-2.88,5.01-1.75,16.09-9.14,16.3Z"></path><path class="st4" d="M312.67,1831.3c-5-3.34,2.2-10.02,2.66-14.47,2.11-3.58,1.97-12.68,7.16-12.57,3.26,2.07-1.87,10.14-1.95,13.66-1.84,4.24-1.47,14.04-7.87,13.37Z"></path><path class="st4" d="M390.22,1830.25c-5.58-1.89,1.27-9.06,2.15-12.52,1.65-2.4,2.16-7.35,5.16-8.05.17,3.51-2.51,7.86-2.94,11.74,0-.04.02-.09.03-.13-.02.09-.04.19-.06.28.01-.05.02-.09.03-.14-1.05,2.9-.33,8.46-4.37,8.83Z"></path><path class="st4" d="M442.64,1672.02c.62-4.73,5.4-20.66,9.83-22.1,2.33-.29,2.76,2.96.99,4.01-1.9,5.81-4.02,11.69-4.69,17.8-.21,3.53-6.2,4.37-6.12.29Z"></path><path class="st4" d="M426.84,1724.48c-5.55-1.75.74-12.59,2.02-16.3-1.88.61-.08-1.88.25-2.56,0,0-.01.02-.02.03,6.49-12.73,3.15,6.75,1.79,10.49-.96,2.82.06,8.1-4.04,8.34Z"></path><path class="st4" d="M385.47,1883.87c-3.18-4.18,1.04-9.59,1.89-14.01,6.45-20.16,13.68-40.06,20.4-60.13,3.57-8.49,5.45-27.98,14.03-31.8,2.49.18,3.64,3.91,1.25,5.14-6.55,27.3-13.11,54.6-22.56,81.1-3.42,5.95-4.64,26.21-15.01,19.69Z"></path><path class="st4" d="M390.04,1878.2c-8.5-2.21,3.83-22.3,4.52-28.5,4.94-13.85,9.81-27.77,12.94-42.17-.02.1-.05.2-.07.3.99-4.4,6.63-36.74,13.88-27.92,0,0,.01-.01.02-.02-6.42,26.29-9.33,52.86-19.77,78.4-3.39,5.99-2.99,19.59-11.52,19.91Z"></path><path class="st4" d="M417.31,1848.66c-7.28-3.11,2.6-14.65,3.28-20.06-.05.15-.11.3-.16.45.92-2.17,1.24-4.76,2.91-6.51,0,0,0,0,0,0,7.46-3.57,2.55,8.8,1.9,12.16-1.84,4.59-1.21,14.11-7.93,13.97Z"></path><path class="st4" d="M423.62,1878.54c-6.6-1.05,5.91-19.88,7.38-23.9,1.98-2.14,5.19.39,3.59,2.83-1.32,1.88-1.74,4.26-2.62,6.37-2.66,4.14-2.5,14.56-8.36,14.7Z"></path><path class="st4" d="M454.4,1855.49c-5.44-2.78,1.82-10.09,2.73-14.14,1.04-1.33.94-4.86,3.17-4.41,2.13,1.43-1.6,20.74-5.9,18.55Z"></path><path class="st4" d="M471.65,1876.11c-4.8-1.82,3.49-11.11,3.81-14.84.11-.72.91-1.45,1.68-1.05,1.2,2.61-1.36,6.26-1.49,9.2.02-.09.04-.17.06-.26-.76,2.46-.36,7.24-4.05,6.94Z"></path><path class="st4" d="M398.95,1540.49c-1.38-2.57-2.84-5.1-4.26-7.66-1.3-1.67-1.31-4.76,1.36-4.85,3.14,1.91,5.55,5.74,7.93,8.7,1.98,2.91-2.91,6.96-5.04,3.81Z"></path><path class="st4" d="M416.26,1534.39c-3.49-1.48-3.58-6.52-5.54-9.44-1.21-.33-1.54-1.75-1.05-2.82,0,.02-.01.04-.02.05,3.99-7.63,16.71,12.8,6.61,12.21Z"></path><path class="st4" d="M433.26,1526.3c-.22-4.45,1.1-8.8,2.77-12.87-.06.1-.11.21-.16.31,0,0,0,0,0-.01,0,.02-.02.03-.02.05,0-.01.01-.02.02-.03-.01.05-.03.1-.04.15,2.01-4.09,6.03-1.29,4.62,2.56.01-.13.02-.27.04-.39-.48,3.87.69,8.32-1.26,11.83-1.71,2.51-6.04,1.76-5.95-1.59Z"></path><path class="st4" d="M462.02,1528.57c-4.53-2.41.52-7.96,1.94-11.03,1.23-2.51,4.5-6.46,7.06-3.13-.06-.08-.11-.15-.17-.22,1.91,2.93-1.54,5.63-2.52,8.28-1.38,2.52-2.54,7.22-6.32,6.11Z"></path><path class="st4" d="M660.09,1488.43c-1.27-1.95-3.64-4.54-2.32-6.95.99-1.97,4.35-2.05,4.7.41.74,1.34,2.5,1.99,2.68,3.62.41,2.57-3.12,5.02-5.06,2.91Z"></path><path class="st4" d="M680.07,1486.21c-4.26-1.09-1.48-5.98-.87-8.77-.46-2.25,1.5-4.65,3.81-4.59,5.61.24,2,14.59-2.94,13.36Z"></path><path class="st4" d="M698.95,1486.31c-4.16-.95.85-11.16,3.93-10.16,4.37.86.03,11.93-3.93,10.16Z"></path><path class="st4" d="M658.63,1724.15c-3.56-1.93-7.99-3.86-10.06-7.48-.2-6.39,6.46-1.94,9.41-.43-.04-.02-.09-.04-.13-.06,2.54,1.05,6.76,2.15,5.13,5.77-.67,1.6-2.62,2.83-4.35,2.19Z"></path><path class="st4" d="M670.28,1718.28c-2.05-1.5-1.39-4.66-2.09-6.88-.47-2.89-1.62-5.75-1.41-8.71.52-3.14,5-2.4,4.07.86,0-.1-.01-.2-.02-.29.42,4.34,8.57,15.97-.55,15.03Z"></path><path class="st4" d="M685.34,1722.18c-6.96-1.37,3.96-17.89,7.08-19.66,3.18-.88,4.48,3.46,2.14,5.24-3.06,4.35-2.78,14.07-9.23,14.42Z"></path><path class="st4" d="M699.82,1726.05c-4.65-4.12,3.53-9.16,5.39-12.9.65-1.43,1.9-2.86,3.67-2.53,4.47,1.54.07,6.19-1.29,8.59-2.04,2.6-3.4,8.66-7.77,6.84Z"></path><path class="st4" d="M520.88,1821.58c-2.56-2.99-12.48-9.43-5.45-12.51.83-.14,1.76.29,2.14,1.05,2.46,2.54,5.69,4.17,8.01,6.87,2.42,2.78-1.98,7.34-4.7,4.6Z"></path><path class="st4" d="M531.65,1814.07c-1.62-3.93-4.1-10.88-2.28-14.7,3.66,1.78,5.06,7.42,7.56,10.71,2.03,3.09-3.01,7.28-5.29,3.99Z"></path><path class="st4" d="M547.07,1815.97c-6.7-1.28,1.31-16.24,5.95-14.98,3.81,1.38.31,5.37.11,7.99-.71,3.07-2.07,7.59-6.07,7Z"></path><path class="st4" d="M563.74,1818.6c-3.18-2.95.83-6.41,3.2-8.3,1.63-1.53,4.16-5.05,6.09-1.87,1.05,3.32-5.33,13.29-9.29,10.16Z"></path><path class="st4" d="M849.12,1786.63c-3.38-2.38-6-5.67-8.47-8.95.06.09.14.17.22.25-1.24-1.24-.87-3.25.5-4.29,3.5-2.23,5.09,3.37,8.12,4.41,1.89,1.45,5.09,2.65,5.12,5.39,0,2.62-3.18,4.88-5.48,3.19Z"></path><path class="st4" d="M857.85,1777.51c-2.8-1.56-6.09-14.93.31-12.95,1.79,2.3,2.12,5.75,3.79,8.37,1.07,2.42-1.56,5.45-4.1,4.58Z"></path><path class="st4" d="M870.03,1781.11c-4.82-1.4-1.2-7.07-.05-10.03,1.67-2.56,1.38-7.54,5.23-7.71,2.18.02,3.09,2.68,1.95,4.34-1.84,4.27-.84,13.43-7.13,13.4Z"></path><path class="st4" d="M884.33,1785.52c-3.42-3.15.97-6.6,3.15-8.91,2.33-2.11,4.22-6.76,7.94-5.96,2.58.94,2.05,4.67-.13,5.78-3.34,2.89-5.31,12.08-10.96,9.1Z"></path><path class="st3" d="M750.46,472.62c-7.93-1.77-3.84-13.09-5.69-18.94-7.56-7.54,45.37-11.14,50.82-13.2,47.89-7.1,95.86-13.56,143.98-18.99-.07,0-.15.02-.22.02,1.81-.2,3.62-.4,5.43-.61-.21.02-.41.05-.62.07,18.16-1.98,36.36-3.68,54.54-5.41-.33-2.6.07-6.61,3.53-6.44,46.45-7.92,94.16-7.68,141.04-12.32.8-6.28,9.61-6.17,14.51-6.74,2.63.31,6.23-.63,7.74,2.15,3.83,11.12,3.58,23.24,4.27,34.87-.6,8.33,3.94,20.3-1.89,26.95-4.78,3.43-15.65,9.23-16.02-.87-.4-.17-.79-.43-1.1-.73-36.19-.25-72.34.9-108.52,1.92-7.28-1.7-44.74,5.98-42.26-3.72-50.64,1.04-100.96,6.81-151.36,11.4.19-.02.38-.04.57-.07-17.08,1.86-34.06,4.63-51.18,6.12.19-.02.39-.04.58-.06-16,1.89-32.06,4.34-48.17,4.59ZM1009.42,450.17v.02c.44-.02.88-.05,1.32-.09-.44.02-.88.05-1.32.07ZM1154.23,399.72c.12.48.24.96.36,1.43-.01-.51-.03-1.02-.06-1.53-.1.04-.2.07-.3.1Z"></path><path class="st0" d="M756.22,1736.98c-3.87-60.24-4.58-121.04-9.48-181.43-30.23,4.87-58.9,10.63-89.89,13.03-26.12.11-53.13,3.98-78.85,3.93,1.06,27.26,1.28,54.28,3.53,81.79,1.24,15.42,1.75,34.75,2.66,51.94.78,11.93,4.29,31.57-12.29,32.89-13.51-.65-11.11-16.3-12.14-25.94-1.25-17.73-1.49-33.47-3.04-50.6-5.11-77.87-6.45-156.98-12.49-236.4-1.8-40.32-6.75-80.52-9.05-120.72-2.51-46.93-7.26-93.85-9.66-140.72-4.51-58.3-2.77-116.8-4.74-175.32-2.11-49.35-7.01-98.84-8.32-147.57-2.68-39.23-1.59-84.06-3.59-124.72-5.36-70.57-12.05-139.49-14.96-210.69,3.4-1.4,6.69-3.04,9.96-4.71-.18.09-.35.18-.52.27,4.72-2.46,9.53-4.78,14.45-6.81,2.47,61.79,6.89,123.49,12.14,185.08,4.75,45.83,3.47,97.01,5.68,144.15,2.12,49.95,6.06,98.49,9.2,148.74,1.81,54.38,1.43,108.91,4.85,163.38,41.96-6.07,84.65,3.13,126.28-3.93.75,8.56.92,17.14,1.44,25.71-37.45,1.35-74.96,2.95-112.36,4.44-3.52,2.96-8.47,4.07-12.91,5.18,4.88,63.51,8.77,125.72,13.33,188.66,55.18-13.82,113.66-9.2,169.57-18.41-2.41-57.63,2.76-121.3,2.49-178.43.45-42.22-3.09-92.97-2.86-133.18-2.93-89.54.17-180.13-5.07-269.31-2.39-28.14-2.52-56.84-2.56-85.09-.36-39.36-5.27-85.46-7.1-126.12,8.29-2.54,16.7-4.63,24.94-7.34,3.75,60.04,8.28,120.27,7.94,179.88,6.74,83.76,5.29,168.34,7.11,253.46,2.48,100.28,6.49,196.27,1.87,296.42-1.69,116.96,9.87,230.35,16.89,347.57,1.13,36.31,3.26,72.02,4.03,108.38,3.23,15.91-17.73,32.42-26.48,12.54ZM568.06,1385.24c3.31,55.98,6.92,112.19,9.1,168.27,55.27-11.83,112.84-7.55,167.55-23.05-5.99-56.86-7.84-112.82-9.37-169.98-21.74,2.55-43.63,3.55-65.46,4.61h.12c-34.63.58-68.91,4.99-103.42,3.33.55,5.66,1.07,11.2,1.48,16.82Z"></path><path class="st0" d="M696.33,1142.21c-.32-4.06-.57-8.12-.85-12.18,23.33-5.83,20.82,24.34,2.09,27.14-.45-4.98-.85-9.97-1.24-14.95Z"></path><path class="st0" d="M708.81,363.03c-4.67-60.81-6.91-119.29-12.02-178.44-2.1-42.92-9.96-87.18-2.07-129.57,19.43-22.52,18.66,48.38,21.1,57.3,10.79,86.76,12.93,170.51,19.56,257.7-8.31,3.63-17.81,4.57-25.37,9.9-.36-5.3-.76-10.9-1.19-16.88Z"></path><path class="st0" d="M491,442.08c-.28-56.02-6.06-110.13-9.39-165.65-1.03-63.46-4.19-126.87-8.65-190.12-1.97-25.92,37.05-25.84,25.51,1.08,8.32,59.46,4.62,119.12,5.66,178.67,3.49,57.2,10.58,115.26,10.59,172.38-8.7,1.09-16.33,5.62-23.69,10.11-.02-2.17-.03-4.33-.04-6.47Z"></path><path class="st0" d="M545,984.24c-9.32.68-17.87-8.76-9.06-16.07,10.59-5.83,23.88-5.38,35.58-7.95,27.51-4.81,55.37-6.8,82.93-11.04.85,8.89,2.28,17.82,5.4,26.22-37.96,5.39-76.54,7.64-114.85,8.83Z"></path><path class="st0" d="M677.66,971.54c-.12-.76-.25-1.52-.37-2.27.05.29.09.58.14.88-.08-.48-.16-.96-.23-1.45.05.29.09.58.14.88-1.26-8-3.32-15.93-6.98-23.18,12.07-1.22,24.29-2.8,36.35-3.26,13.69,2.54,11.01,22.61-.56,26.39-8.97,2.96-18.62,2.53-27.94,3.45-.18-.48-.35-.96-.53-1.44Z"></path><path class="st0" d="M528.74,781.76c-5.26.6-9.41-4.24-7.82-9.35,5.04-11.82,22.82-10.33,33.54-13.3.37,2.43.29,4.88.45,7.32,0,0,0,0,0,0,.34,4.52.99,9,2.01,13.41-9.39.57-18.79,1.36-28.18,1.93Z"></path><path class="st0" d="M568.64,756.51c12.43-.05,11.64,17.77,1.45,21.15-.5-7.05-.98-14.1-1.45-21.15Z"></path><path class="st0" d="M563.69,757.24c.07-.01.14-.03.2-.04.02.33.04.64.04.96-.08-.31-.16-.61-.25-.92Z"></path><path class="st0" d="M515.11,559.09c-14.45-25.37,70.56-25.95,85.02-29.43.56,7.81,2.2,15.51,2.59,23.34-16.43,2.24-32.98,3.36-49.48,4.91-11.9.19-27.7,8.52-38.13,1.18Z"></path><path class="st0" d="M618.05,547.58c0-.84-.2-1.65-.36-2.47.04.17.07.34.11.52-1.2-5.99-2.53-11.96-3.66-17.97,16.25-3.21,16.31,20.4,2.37,23.22.93-.79,1.54-1.97,1.55-3.3Z"></path><path class="st0" d="M614.92,531.72c.03.14.06.28.08.42-.03-.14-.05-.28-.08-.42Z"></path><path class="st0" d="M546.41,370.96c-14.19-1.94-29.85-1.52-43.11-6.72-5.2-4.46-.51-12.59,5.65-12.85,14.79-2.48,29.77-.25,44.65-.76,31.56-2.9,63.27-3.99,94.78-7.3,18.11-3.18,36.27-5.42,54.57-6.93,10.2-5.44,21.96,2.31,16.87,13.94-6.84,13.57-25.76,8.66-38.26,11.02-44.64,7.31-89.99,8.93-135.16,9.62Z"></path><path class="st0" d="M508.81,370.67c-5.16.04-8.4-5.81-4.98-9.93,5.92-4.97,15.44-3.83,22.75-5.97,37.41-6.03,75.13-11.45,113.09-11.29,23.08-.86,45.47-7.82,68.66-8.02,12.02.65,8.85,18.69-1.71,19.34-9.31.72-18.7.56-27.96,1.97-27.19,6.09-54.87,3.94-82.43,5.92-29.27,1.13-58.22,6.73-87.43,7.98Z"></path><path class="st0" d="M511.56,179.11c-7.45,1.07-18.35-5.48-11.2-13.17,0,0,0,0,0,0,5.04-4.68,12.64-4.3,19.02-5.57,15.79-2.2,31.7-3.31,47.54-5.04,42.89-4.98,85.64-10.23,128.83-11.6,19.24-7.02,22.18,20.84,4.31,23.54-6.46.21-12.92.22-19.39.64.21,0,.43-.02.64-.03-56.72,1.26-112.98,10.18-169.75,11.23Z"></path><path class="st4" d="M711.4,481.02c-20.81-1.53-10.64-19.71,4.95-15.94,8.33,2.29,6.1,17.65-4.95,15.94ZM713.05,476.59c.79-.07,1.57-.28,2.31-.56-3.39-.67-4.94-4.93-3.45-7.88-.72.23-1.42.51-2.11.79.01,0,.03-.01.04-.02-2.32.9-4.84,1.88-6.32,3.99,1.87,3.33,6.07,3.78,9.54,3.68Z"></path><path class="st4" d="M713.31,485.09c-.65-1.24,1.21-.83,1.84-1.25-.03,0-.06.02-.09.03,1.28-.53,2.42-1.34,3.4-2.31-.01.01-.03.03-.04.04l.27-.27s-.06.06-.09.09c.72-.72,1.43-1.48,1.91-2.39,1.11-1.57,2.88.57,1.52,1.66-2.48,1.8-5.35,5.55-8.73,4.4Z"></path><path class="st4" d="M702.68,502.57c-2.72-1.15.03-4.73.38-6.7-.21-1.61,1.58-3.43,3.16-2.53h0c1.34.85,1.31,2.77.22,3.84-1.24,1.64-1.31,5.27-3.75,5.38Z"></path><path class="st4" d="M710.95,499.84c-2.57-1.09.63-4.62,1.13-6.36-.17-.58.63-1.04.99-.51.39.93-.24,1.98-.44,2.9,0,0,0,0,0,0-.58,1.24.09,3.71-1.68,3.97Z"></path><path class="st4" d="M718.24,497.6c-2.31.14.02-5.94.9-6.45,1.59-.25.73,6.89-.9,6.45Z"></path><path class="st5" d="M671.94,1377.01c-14.43-7.81,24.88-28.7,30.06-35.41-9.21-41.05-4.67-83.63-7.64-125.36-3.37-99.99-5.61-201.53-35.24-297.86-43.68,14.06-89.84,20.38-132.11,38.87.19-.07.37-.15.56-.23-14.6,7.28-29.98,13.87-43.58,22.8-5.4,16.26-1.05,34.44,3.95,50.33-.05-.14-.09-.29-.14-.43,9.47,26.09,23.4,50.15,35.63,74.98,10.15,21.18,19.7,42.72,32.97,62.15,1.8,5.71-4.92,9.9-7.44,14.41-7.36,8.67-13.72-6.52-19.48-10.23-7.43,18.44-22.58,34.2-41.61,40.55.16-.07.33-.13.49-.2-18.98,10.05-24.27,4.29-10.91-12.83,5.41-7.95,9.45-16.66,14.16-25-17.09-33.06-33.76-66.3-50.56-99.5-11.65-19.16-19.99-39.97-29.09-60.41-5.79-13.36-12.16-26.53-14.77-40.98-22.12-68.47,105.06-89.36,149.41-109.71.07.03.15.06.23.09-.05-.02-.11-.04-.16-.06.07.02.13.05.2.07-.07,1.6,1.35,2.9,2.84,3.23,29.81,13.15,63.95,15.03,96.22,16.86,8.08.74,17.75,1.32,25.15-1.84,8.3-9.24,16.23-18.75,23.86-28.56,2.13,11.18,2.18,23.7,7.21,33.88,18.07,5.27,38.56,4.43,57.28,2.66,3.73,52.36-1.64,105.14-2.61,157.59-1.83,46.67-1.47,93.5-1.98,140.21,1.15,27.53.87,55.08,2.28,82.6.95,30.58,4.57,61.12,2.6,91.73-.84,9.05-13.19,6.27-19.53,7.66-6.28-1.93-5.31-10.95-6.91-16.18-15.35,16.33-39.56,22.73-61.31,24.09ZM545.25,1174.68s.04-.04.05-.07c-.43-.42-.83-.87-1.21-1.33.38.47.77.94,1.16,1.4Z"></path><path class="st4" d="M613.93,586c-.1-.27-.15-.55-.15-.84,1.25-.19,2.5-.44,3.75-.62-.65,1.22-2.59,3.53-3.6,1.46Z"></path><path class="st4" d="M712.11,578.35c-.63-.56-1.27-1.12-1.92-1.66,3.21-.46,6.44-.69,9.68-.71.33.54.64,1.09.94,1.64-1.06.25-2.14.46-3.21.63h0c-1.65.23-3.32.35-4.97.6-.17-.17-.34-.34-.52-.5Z"></path><path class="st4" d="M717.51,578.26s0,0,.01,0c0,0-.01,0-.02,0,0,0,0,0,0,0Z"></path><path class="st4" d="M717.55,578.26s0,0,0,0h-.03s.02,0,.03,0Z"></path><path class="st4" d="M481.82,502.92c-1.12-1.92-2.77-3.46-4.24-5.1,6.32-3.31,12.8-6.29,19.47-8.82-.17.07-.34.14-.51.21,8.05-3.33,17.09-4.06,24.84-8.13-.14-.02-.29-.04-.44-.07.12.02.23.04.34.05-3.39-.83-6.7-.04-10.04.4-7.51-3.94,5.18-8.22,8.16-10.47-4.37-.83-8.43,2.23-12.59,1.79-5.09-4.19,3.34-6.82,6.59-7.91-.02,0-.04.02-.05.02.09-.04.18-.07.27-.11-.03.01-.06.02-.09.04,1.82-.88,4.11-1.48,5.3-3.2-.31-.37-.72-.62-1.13-.85.09.05.18.09.27.13-4.7-1.18-9.61,2.05-14.32,2.38-8.78-5.2,8.96-8.57,11.14-12.43-18.52-.05-32.25,15.4-46.89,24.81h0s0,0,0,0c-2.01,1.48-3.96,3.02-5.83,4.66-1.15-1.31-2.29-2.66-3.62-3.81,12.1-10.91,25.74-20.65,40.34-27.89,6.8-3.78,29.17-6.46,17.88,6.75,5.4-.38,8.85,6.29,4.54,10.03,6.31.07,5.04,7.56.67,9.79,11.56,2.33,2.27,13.13-4.82,14.64-11.66,4.8-23.37,9.43-34.7,15.05,0-.71-.18-1.41-.55-1.99Z"></path><path class="st4" d="M936.85,448.95c-1.15-10.02-6.43-23.29,1.56-31.54,3.12-2.28,7.57-1.9,9.38,1.78,1.17-5.14,8.89-7.04,10.41-1.14,2.8-4.74,8.14-8.34,9.67-.57,5.78-9.2,12.44-1.98,11.11,6.28-2.16,12.05-1.15,24.58-.22,36.72-2.04-.41-4.13-.38-6.2-.29-2.5-13.83-.35-27.94,1.62-41.39.03.11.05.21.08.32-.13-.66-.36-1.37-1.02-1.65-3.6,1.96-4.23,6.25-4.7,9.94-5.31,7.12-3.1-8.1-4.78-10.34-2.86,2.66-4.93,6.48-4.05,10.46.74,2.31-1.83,5.54-3.84,3.13-1.78-3.34.74-9.53-2.59-11.77.04,0,.07,0,.11,0,0,0-.01,0-.02,0,.06,0,.13,0,.19-.01-5.87.61-.04,21.25-7.74,15.42-1.3-2.82.72-13.69-4.31-11.93-3.54,13.51,3.28,27.82,3.65,41.61-1.8.17-3.68.1-5.43.57-1.19-5.15-2.04-10.36-2.88-15.58Z"></path><path class="st4" d="M735.94,496.04h0s0,0,0,0c0,0,0,0,0,0Z"></path><path class="st4" d="M736.09,495.98s-.05.02-.07.02c.02,0,.04-.02.07-.02Z"></path><path class="st3" d="M731.63,890.45c-39.59-2.04-29.48-.48-36.71-37.69-7.62,9.81-15.56,19.33-23.86,28.56-7.39,3.16-17.08,2.57-25.14,1.84-32.27-1.83-66.42-3.71-96.22-16.86-4.16-1.04-3.06-5.6-.3-7.61,3.69-4.88,6.4-10.21,8.32-16.02,9.64-23.17,9.82-44.19,7.56-68.67-2.53-29.72-9.71-59.14-16.11-88.26-53.41-1.95-135.74,5.02-178.59-31.4-35.1-37.28-20.71-84.41,10.72-118.61,20.96-23.93,44.6-46.81,73.76-60.15h0c6.42-.09,10.28,10.97,15.34,14.64,3.54,5.43,17.9,13.1,8.84,19.34-10.29,11.35-23.94,19.94-34.91,30.86l.13-.14c-105.71,90.64,60.7,59.09,110.96,54.62,29.39-2.7,58.24-6.73,87.69-10.37,17.66.14,34.32-2.07,51.75-2.28l-.12.04c9.18-1.03,18.87-.05,27.73-2.67,31.98-6.22,65.41-6.69,97.61-2.87h-.39c29.97,2.25,59.88,5.32,89.93,6.04,13.94-.65,28.64,3.8,42.19-.02l.05-.14h-.01c1.38-15.53-.97-28.25-2.87-42.94-2.88-21.58-6.51-42.92-14.95-63.14-4.43-10.46,7.79-13.24,15.69-12.96,9.49-.54,27.68-7.77,34.73-.38,3.29-.19,3.73,11.43,6.03,14.52,13.12,32.58,17.4,66.39,23.3,100.93l-.04-.17c3.66,26.13,3.29,62.96-26.55,73-24.96,9.74-52.19,12.65-78.69,14.84h.02c-.09,0-1.65.12-1.79.13h.18c-22.42,3.29-44.51,2.63-67.11,2.3-16.78-.28-33.94.93-50.95-.18-1.09,33.94-15.85,67.22-8.57,101.03,4.92,23.24,11.78,45.19,19.66,67.54,4.48,10.44,4.99,22.91,8.87,33.34,9.02,13.55-36.75,17.55-44.6,18.28-1.33.91-3.14,1.18-4.63.51-9.2,1.58-18.66,1.19-27.97,1.18ZM707.02,879.75h.07c-.09-.19-.17-.38-.23-.56.05.19.11.38.16.56ZM472.61,675.06h.06c-1.15-.02-2.27-.03-3.37-.05,1.08.02,2.18.04,3.31.05ZM747.65,582.2c.68-.05,1.37-.11,2.05-.16-.68.06-1.37.08-2.05.16Z"></path><path class="st0" d="M589.45,595.23c-4.98-7.88,19.78-8.15,24.33-10.07h0c1.25-.19,2.5-.44,3.75-.62,0,0,0,0,0,0,2.47-.35,4.98-.45,7.45-.76-.02,0-.03,0-.05,0,28.46-3.16,57.02-2.41,85.25-7.09,0,0,0,0,0,0,15.4-1.84,30.91-1.07,46.36-.59,3.28.43,7.92-1.34,10.22,1.64,1.12,2.1-.01,4.56-2.15,5.41-21.75,1.11-43.74-.23-65.46,2.44.14-.02.28-.04.41-.05-31.98,3.92-64.49,2.21-96.41,7.51,0,0,0,0,0,0-1.4.2-2.8.38-4.21.56,0,0,.01,0,.02,0-3.2.07-6.6,2.6-9.53,1.63Z"></path><path class="st2" d="M614.21,582.98c.46-6.1,3.43-11.36,9.62-13.15-.51-5.21-.41-10.45-.44-15.67-10.36,4.91-18.19-5.54-9.87-13.59-8.19,1.49-10.11-8.31-3.07-11.59-6.45-1.32-7.52-9.98-1.24-12.43,3.56-1.82,7.66-1.73,11.38-3.02-4.63-27.39-.67-57.75,15.53-80.86,0,.01-.02.02-.03.04,12.3-17.48,33.94-24.95,54.7-22.02h-.02c17.85,3.18,21.4-7.59,23.62-22.6,2.54-10.89,19.62-14.37,19.92-.49,9.44-6.95,19.39.2,13.63,11.01,5.15-1.76,11.27.2,11.39,6.38-.01-.11-.02-.21-.04-.31.03.25.06.51.09.77-.01-.11-.02-.21-.04-.32.52,6.52-3.7,12.29-8.22,16.55.03-.03.06-.06.09-.09-6.67,6.67-15.04,11.51-24.07,14.2,4.1,11.33,2.98,23.83,6.52,35.27,2.2,7.76,10.34,9.62,16.38,13.41,2.8,4.15-3.24,7.58-6.61,8.68h0c-2.44,1.11-4.97,2-7.48,2.91h-.02,0c-.46.18-.92.37-1.37.55.76,37.24,16.02,38.76-26.67,47.95.13-.03.27-.06.41-.09-.95.22-1.88.45-2.8.75.32,6.47.27,12.95.95,19.39,5.3,2.49,10.08,6.61,13.42,11.4-3.24.02-6.47.25-9.68.71-12.78-10.18-31.2-3.31-46.19-3.37-13,3.32-40.29-1.88-46.47,11.22-1.25.18-2.5.43-3.75.62-.01-.73.23-1.51.43-2.18ZM652.64,487.81c-9.89,1.63-10.85,17.25-4.58,23.39,4.55,1.96.98,9.24.73,13.02-2.61,11.18-9.3,21.47-19.49,27.07-.64,5.58-.85,11.29-.62,16.92,23.84-2.89,48.19-5.44,72.25-4.95.15-7.18-1.55-14.98-.13-21.87,9.22-6.53,22.17-5.35,32.32-10.2.67-5.91-6.96-38.45.29-38.06,4.58-1.66,10.72-1.94,14.02-5.73-13.73-4.06-22.78-13.81-23-28.59h0c-.03-.32-.07-.64-.1-.96.02.12.03.25.04.37-.07-.68-.14-1.37-.21-2.06-4.63,2.32-9.47,4.41-14.52,5.67.12-.03.25-.06.38-.09-4.7,1.48-19.63,2.37-13.93-6,8.41-4.17,17.93-7.91,27.49-6.48-.41-3.98-.41-8.01-1.3-11.93-15.6,6.02-30.92,13.22-46.75,18.87.05,12.99,2.79,25.8,4.29,38.67h0c2.81,15.03.53,13.63-13.49,16.89-7.54-3.99-2.87-24.38-13.68-23.94Z"></path><path class="st1" d="M547.89,669.83c-4.02-6.83,1.46-9.82,2.01-5.57.43,1.11,1.07,2.12,1.76,3.08,1.5,2.24-2.39,5.15-3.77,2.49Z"></path><path class="st1" d="M790.67,652.39c-1.89-3.37,1.17-9.77,2.67-13.09,4.93-2.73,2.77,5.62,3.15,8.14,0-.14-.02-.29-.02-.43,1.12,3.5-2.3,8.4-5.8,5.38Z"></path><path class="st1" d="M694.75,841.31c-3.16-9.03.71-20.17-.44-29.88.19-3.51-2.95-12.78,3.33-11.5,4.44,8.29,2.4,19.26,2.93,28.53-.09,4.36,1.82,15.95-5.83,12.84Z"></path><path class="st1" d="M732.6,580.18c-3.1.21-10.09-2.39-4.55-5.09,0,0,0,0,0-.01,3.7.39,7.43.46,11.14-.11,1.38-.15,2.5.91,2.47,2.3-.42,4.31-6.06,2.82-9.06,2.91Z"></path><path class="st1" d="M997.2,436.21c-2.27-2.23-.59-6.35-1-9.28-.35-.5-.19-1.17.1-1.68,0,0,0,0,0,0,2.04-4.04,3.77,1.49,3.73,3.6.49,2.69,1.88,8.67-2.84,7.36Z"></path><path class="st1" d="M1147.32,444.25c-1.14-8.66-.04-17.26-.3-25.92.83-3.87-3.45-18.06,3.03-16.85,0,0,0,0,0,0,4.72,10.69,1.9,23.86,3.02,35.4,0-.04,0-.08,0-.13,0,.15.01.29.02.44,0-.02,0-.04,0-.06-.18,3.05.92,8.41-3.1,9.22-1.28.15-2.57-.75-2.66-2.1Z"></path><path class="st1" d="M655.4,432.4c-3.91-2.49,4.26-6.71,6.3-7.93,2.77-1.14,3.83,3,1.44,4.13-2.59,1.1-4.88,3.67-7.75,3.8Z"></path><path class="st1" d="M662.07,440.1c-.46-.36-.64-.9-.62-1.44,0,0,0,.01,0,.02.02-.28.07-.56.18-.82,0,0,0,0,0,.01,1.97-3,5.1-5.49,7.91-7.71,2.6-1.41,3.94,2.43,1.6,3.66.02-.01.03-.02.05-.03-1.51,1.06-2.86,2.34-4.29,3.51.02-.02.04-.04.07-.06-.07.07-.15.13-.23.2.02-.02.04-.03.06-.05-1.56.94-2.53,4.14-4.74,2.72Z"></path><path class="st1" d="M670.68,443.45c-4.16-3.24,3.82-6.99,6.1-8.89.84-.52,2.02-.36,2.57.5,1.34,3.16-3.45,4.54-5.09,6.52,0,0,.01,0,.02-.01-.34.31-.69.59-.98.95.01-.02.03-.04.05-.07-.04.04-.07.08-.11.12.1-.11.19-.22.27-.34-.01.02-.02.03-.04.05.05-.09.1-.19.15-.29-.53,1.06-1.74,1.9-2.92,1.47Z"></path><path class="st1" d="M439.24,978.48c-4.82-1.97-11.21-3.65-13.62-8.68-1-2.99,4.27-5.29,4.83-1.64,2.51,3.98,13.2,3.44,12.06,8.68-.52,1.2-1.97,2.12-3.27,1.65Z"></path><path class="st1" d="M448.89,967.6c-2.19-2.81-10.94-9.73-8.91-13.1,2.86-.98,4.62,5.63,7.15,7.05,1.1,1.87,5.6,3.55,3.77,5.97-.56.55-1.43.65-2,.07Z"></path><path class="st1" d="M678.79,915.89c-2.38-.18-1.53-3.8.56-3.63,2.84.86,8.52-3.08,9.65.56-1.17,3.49-7.13,2.53-10.22,3.08Z"></path><path class="st1" d="M689.66,932.31c-2.6-.82-9.18.87-8.78-3.2,1.63-3.57,6.65-.43,9.66-.76,2.37.46,1.26,4.16-.88,3.96Z"></path></svg>