<svg xmlns="http://www.w3.org/2000/svg" viewBox="0 0 2200 1466"><defs><style>.st0{fill:#fff}.st1{fill:#ce2828}.st2{fill:#6d4135}</style></defs><g id="background"><rect width="2200" height="1466" y="0" class="st0"/></g><g id="Objects"><g><path d="M1732.47,487.27c-20.31-48.02-46.27-92.85-77.54-133.99l-35.52-4.79-56.19,56.19c30.08,37.36,54.73,78.57,73.55,123.06,27.11,64.1,40.85,132.1,40.85,202.14s-13.74,138.04-40.85,202.14c-26.16,61.84-63.58,117.35-111.22,164.99-47.64,47.64-103.15,85.06-164.99,111.22-64.1,27.11-132.1,40.85-202.14,40.85s-138.04-13.74-202.14-40.85c-61.84-26.16-117.35-63.58-164.99-111.22-47.64-47.64-85.06-103.16-111.22-164.99-27.1-64.1-40.85-132.1-40.85-202.14s13.75-138.05,40.85-202.14c26.16-61.84,63.58-117.35,111.22-164.99,47.64-47.64,103.15-85.06,164.99-111.22,64.1-27.11,132.1-40.85,202.14-40.85s138.04,13.74,202.14,40.85c44.49,18.82,85.7,43.47,123.06,73.55l56.19-56.19-4.79-35.52c-41.14-31.28-85.97-57.23-133.99-77.54-76.97-32.56-158.59-49.06-242.61-49.06s-165.64,16.5-242.61,49.06c-74.24,31.4-140.85,76.3-197.99,133.45-57.15,57.15-102.05,123.76-133.45,197.99-32.56,76.97-49.06,158.6-49.06,242.61s16.5,165.64,49.06,242.61c31.4,74.23,76.3,140.84,133.45,198,57.15,57.14,123.77,102.04,197.99,133.44,76.97,32.56,158.59,49.06,242.61,49.06s165.64-16.5,242.61-49.06c74.24-31.4,140.84-76.3,198-133.45,57.14-57.15,102.04-123.77,133.44-197.99,32.56-76.96,49.06-158.59,49.06-242.61s-16.5-165.65-49.06-242.61Z" class="st1"/><path d="M1543.91,567.01c-13.72-32.45-31.29-62.74-52.5-90.52l-74.36,74.36c36.31,52.2,55.84,114.11,55.84,179.04,0,84-32.71,162.97-92.11,222.37-59.39,59.4-138.37,92.12-222.37,92.12s-162.97-32.71-222.37-92.12c-59.4-59.39-92.11-138.37-92.11-222.37s32.71-162.97,92.11-222.37c59.39-59.4,138.37-92.11,222.37-92.11,64.93,0,126.84,19.54,179.04,55.84l74.36-74.36c-27.79-21.21-58.08-38.78-90.52-52.5-51.61-21.83-106.41-32.9-162.87-32.9s-111.25,11.07-162.87,32.9c-49.83,21.08-94.57,51.24-132.98,89.64-38.4,38.41-68.56,83.15-89.64,132.98-21.83,51.61-32.9,106.41-32.9,162.87s11.07,111.25,32.9,162.87c21.08,49.83,51.24,94.57,89.64,132.98,38.41,38.4,83.15,68.56,132.98,89.64,51.62,21.83,106.41,32.9,162.87,32.9s111.26-11.08,162.87-32.9c49.83-21.08,94.57-51.24,132.98-89.64,38.4-38.41,68.56-83.15,89.64-132.98,21.83-51.62,32.9-106.41,32.9-162.87s-11.07-111.26-32.9-162.87Z" class="st1"/><path d="M1344.04,623.86l-79.15,79.15c2.17,8.69,3.29,17.69,3.29,26.87,0,29.32-11.41,56.87-32.14,77.61-20.73,20.73-48.29,32.14-77.61,32.14s-56.87-11.41-77.6-32.14c-20.73-20.73-32.15-48.29-32.15-77.61s11.42-56.88,32.15-77.61c20.73-20.73,48.28-32.14,77.6-32.14,9.18,0,18.18,1.12,26.87,3.29l79.15-79.15c-31.93-18.3-68.23-28.05-106.02-28.05-57.07,0-110.73,22.23-151.09,62.58-40.35,40.36-62.58,94.01-62.58,151.09s22.23,110.73,62.58,151.09c40.36,40.35,94.01,62.58,151.09,62.58s110.73-22.23,151.09-62.58c40.35-40.36,62.58-94.01,62.58-151.09,0-37.8-9.75-74.1-28.05-106.02Z" class="st1"/><path d="M1805.78,197.28l-35.95-35.95,28.69-28.69c11.84-11.84,11.84-31.03,0-42.86-11.84-11.84-31.03-11.84-42.86,0l-28.69,28.69-35.95-35.95c-10.96-10.96-28.72-10.96-39.68,0l-87.5,87.5c-6.19,6.19-9.14,14.91-7.97,23.59l11.4,84.55-430.29,430.29c-11.84,11.84-11.84,31.03,0,42.86,5.92,5.92,13.67,8.88,21.43,8.88s15.51-2.96,21.43-8.88l430.29-430.29,84.55,11.4c8.68,1.17,17.4-1.78,23.59-7.97l87.5-87.5c10.96-10.96,10.96-28.72,0-39.68Z" class="st2"/></g></g></svg>