<svg xmlns="http://www.w3.org/2000/svg" width="200" height="100" fill="none" viewBox="0 0 200 100"><rect width="200" height="100" fill="#fff" rx="10"/><rect width="23" height="23" x="130.5" y="38.5" fill="#fff" rx="3.5"/><rect width="23" height="23" x="130.5" y="38.5" stroke="#D8D8D8" rx="3.5"/><rect width="14" height="14" x="135" y="43" fill="#AC09C9" rx="2"/><rect width="23" height="23" x="102.5" y="38.5" fill="#fff" rx="3.5"/><rect width="23" height="23" x="102.5" y="38.5" stroke="#2C2C2C" rx="3.5"/><rect width="14" height="14" x="107" y="43" fill="#F2C31B" rx="2"/><rect width="23" height="23" x="74.5" y="38.5" fill="#fff" rx="3.5"/><rect width="23" height="23" x="74.5" y="38.5" stroke="#D8D8D8" rx="3.5"/><rect width="14" height="14" x="79" y="43" fill="#05C9AC" rx="2"/><rect width="23" height="23" x="46.5" y="38.5" fill="#fff" rx="3.5"/><rect width="23" height="23" x="46.5" y="38.5" stroke="#D8D8D8" rx="3.5"/><rect width="14" height="14" x="51" y="43" fill="#0598C9" rx="2"/></svg>